<?xml version="1.0" encoding="UTF-8" standalone="no"?>
<!-- Generator: Adobe Illustrator 19.1.0, SVG Export Plug-In . SVG Version: 6.00 Build 0)  -->
<svg xmlns:dc="http://purl.org/dc/elements/1.1/" xmlns:cc="http://creativecommons.org/ns#" xmlns:rdf="http://www.w3.org/1999/02/22-rdf-syntax-ns#" xmlns:svg="http://www.w3.org/2000/svg" xmlns="http://www.w3.org/2000/svg" xmlns:sodipodi="http://sodipodi.sourceforge.net/DTD/sodipodi-0.dtd" xmlns:inkscape="http://www.inkscape.org/namespaces/inkscape" version="1.1" id="Layer_1" x="0px" y="0px" viewBox="0 0 113.729 71.453" style="enable-background:new 0 0 113.729 71.453;" xml:space="preserve" inkscape:version="0.91 r" sodipodi:docname="logo-white.svg"><metadata id="metadata43"><rdf:RDF><cc:Work rdf:about=""><dc:format>image/svg+xml</dc:format><dc:type rdf:resource="http://purl.org/dc/dcmitype/StillImage"/><dc:title/></cc:Work></rdf:RDF></metadata><defs id="defs41"/><sodipodi:namedview pagecolor="#ffffff" bordercolor="#666666" borderopacity="1" objecttolerance="10" gridtolerance="10" guidetolerance="10" inkscape:pageopacity="0" inkscape:pageshadow="2" inkscape:window-width="1920" inkscape:window-height="1060" id="namedview39" showgrid="false" inkscape:zoom="6.6057406" inkscape:cx="28.102797" inkscape:cy="57.317875" inkscape:window-x="-7" inkscape:window-y="-10" inkscape:window-maximized="1" inkscape:current-layer="Layer_1"/><style type="text/css" id="style3">
	.st0{fill:#100D0F;}
</style><g id="g5"><path class="st0" d="M1.966,21.416c-1.576-2.26-4.054-7.914,1.306-12.168C7.18,6.148,13.297,2.448,18.048,0.838   c3.938-1.334,6.803-1.095,7.919,0.865c0,0,2.458,3.432,1.719,6.296c-0.14,0.542-1.84,3.517-1.84,3.517l-7.412,14.122l9.04-11.741   c0,0,0.391-0.689,1.41-0.858c1.615-0.268,4.55,1.906,2.875,3.027c-0.245,0.164-0.576,0.311-0.986,0.478   c-0.7-0.19-15.655,18.621-17.041,20.32c-0.463,0.568-0.763,1.322-0.786,1.77c-0.056,1.097-0.528,3.315-3.639,2.094   c0,0-3.187-1.73-0.869-5.431c0,0,9.011-17.31,10.431-20.715c1.394-3.343,4.838-8.662,2.076-10.141c0,0-0.676-0.529-3.67,1.538   c0.025-0.018-12.382,8.343-13.473,10.285c0,0-1.087,1.063-0.876,2.23c0.198,1.099,1.302,1.406,1.09,2.377   C3.728,22.195,2.252,21.826,1.966,21.416z" id="path7"/><path class="st0" d="M40.669,31.344c-0.491,0.788-1.3,1.8-1.568,2.093c-0.816,0.89-2.177,2.979,0.154,5.315   c1.935,1.939,3.137,2.091,3.888,1.899c0.262-0.067,0.373-0.084,0.291-0.701c-0.059-0.446-0.38-1.304-0.051-2.252   c0.707-2.036,12.358-22.413,13.202-23.766c0.581-0.931,1.185-3.037-1.396-5.519C52.61,5.93,51.66,5.145,52.305,9.116   c-0.024,0.279,0.546,2.07-2.631,7.18c-0.097,0.156-1.244,2.184-2.384,4.207C46.356,22.161,41.428,30.127,40.669,31.344z" id="path9"/><path class="st0" d="M38.221,25.664c0,0-4.467-4.083-9.106,2.062s-4.573,10.871-3.103,11.619c1.47,0.748,5.73-1.253,7.745-8.542   c0,0-2.864-3.339-0.296-4.81c0,0,1.567-1.714,3.534,0.507c0,0,1.386,1.229,1.02,3.348c0,0,2.458,1.016,3.729,1.284   s-1.343,3.141-2.614,2.873l-2.213-1.072c0,0-5.783,10.855-11.832,7.487c0,0-7.054-3.54,1.625-15.635c0,0,4.007-5.212,8.948-4.414   C35.657,20.37,40.114,21.522,38.221,25.664z" id="path11"/><path class="st0" d="M70.445,44.02c-0.72-0.835-2.567-1.203-2.964-1.282c0.299-1.189,2.992-14.436,4.175-15.731   c1.183-1.299-1.607-4.152-2.79-4.668c0,0-0.843-0.691-0.76,1.207c0,0-4.899-7.515-15.211,2.682c0,0-8.283,8.294-3.214,13.307   c0,0,3.55,5.009,12.173-2.852c0,0,4.392-4.377,5.239-5.691c0,0-1.307,5.119-3.389,11.363c-1.611-0.256-12.827-0.102-20.103,1.761   c-7.136,1.827-12.751,6.422-14.439,8.427c-3.17,3.766-3.817,7.28-3.789,8.678c0.031,1.602,0.737,4.769,3.03,6.725   c2.294,1.956,5.196,2.984,7.128,3.184c1.257,0.13,5.262,1.266,12.404-1.687c3.302-1.365,8.311-5.627,10.462-8.375   c5.08-6.49,8.202-14.878,8.21-14.902c3.596,0.598,5.502,1.672,6.062,2.692C72.67,48.858,72.012,45.836,70.445,44.02z    M63.124,29.344c-2.072,2.7-4.673,4.783-6.321,5.967c-2.942,2.115-5.276,2.179-5.598,1.544c-0.516-1.788,0.143-3.405,1.298-5.179   c0.944-1.451,2.482-3.295,2.482-3.295c5.318-6.773,10.212-4.718,10.469-3.843C65.758,26.395,64.404,27.676,63.124,29.344z    M50.376,60.29c-5.485,4.345-12.382,4.63-15.331,3.999c-2.636-0.563-4.095-3.056-4.093-5.351c0.002-2.58,3.047-5.4,4.523-6.605   c4.126-3.368,10.544-5.283,12.899-5.737c4.334-0.837,13.348-1.192,13.348-1.192S56.916,55.11,50.376,60.29z" id="path13"/><g id="g15"><path class="st0" d="M99.556,42.111l-4.276,3.668c-0.07,0.06-0.219,0.102-0.376,0.121c-0.157,0.019-0.599-0.08-0.689-0.112    c-3.061-1.083-8.093-3.821-7.412-10.414c-0.452-0.17-0.415-0.156-0.867-0.326c-3.408,3.882-7.952,7.549-11.167,6.486    c-4.276-1.414-4.685-5.547-2.977-9.691c2.482-6.023,9.361-12.125,15.247-10.178c3.034,1.004,4.058,2.946,3.766,5.141    c0.152,0.182,0.245,0.292,0.397,0.474c0.326,0.058,0.643,0.138,0.895,0.221c0.558,0.184,0.889,0.404,0.731,0.789    c-1.515,3.678-2.059,8.983-0.593,12.002c0.247,0.509,0.716,1.139,1.366,1.696c1.106,0.947,2.707,1.275,4.18,0.916    C98.398,42.752,99.06,42.508,99.556,42.111 M87.968,28.213c0.069-0.117,0.075-0.257,0.018-0.379    c-0.602-1.287-1.364-2.035-2.249-2.328c-3.84-1.271-9.578,5.647-11.146,9.454c-0.814,1.976-0.77,3.578,0.469,3.988    C80.057,40.601,85.76,31.944,87.968,28.213z" id="path17"/></g><path class="st0" d="M101.817,28.856c0.03-0.119,0.039-0.155,0.069-0.274c0.783-0.35,3.6-1.458,6.469-0.71   c0.02,0.008,0.036,0.015,0.055,0.023c0.328,0.198,3.693,2.436,1.54,9.712c-0.038,0.13-0.659,1.6-1.446,2.566   c-2.154,2.642-6.814,6.382-13.797,5.725c-0.061-0.006-0.237-0.064-0.218-0.121c0.041-0.124,0.199-0.32,0.286-0.374   c0.728-0.448,2.199-1.33,4.193-2.817c0.389-0.29,1.89-1.386,2.763-2.77c0.347-0.549,1.38-2.55,1.539-4.636   C103.464,32.648,102.682,29.937,101.817,28.856z" id="path19"/><path class="st0" d="M96.328,47.436c0,0,19.096-0.424,12.98-7.049c0,0-0.001-0.001-0.001-0.001   c0.014-0.006,2.605-1.084,4.316-0.953c0.002,0,0.003,0.001,0.002,0.003l-0.37,2.635c0,0.002-0.002,0.006-0.003,0.004   c-0.046-0.08-0.909-1.553-1.818-0.318c0,0,4.585,2.345,0.791,5.213C112.226,46.97,113.413,47.688,96.328,47.436z" id="path21"/><g id="g23"><path class="st0" d="M97.045,56.38c-2.276,0-3.701-1.455-3.701-3.758c0-2.061,1.323-3.768,3.78-3.768    c1.569,0,3.151,0.788,3.308,2.323h-1.054c-0.235-0.939-1.088-1.505-2.276-1.505c-1.896,0-2.692,1.424-2.692,2.939    c0,1.829,1.021,2.95,2.681,2.95c1.357,0,2.188-0.728,2.355-2.071h1.054C100.32,55.319,99.018,56.38,97.045,56.38z" id="path25"/><path class="st0" d="M107.373,49.844h-2.681v6.364h-1.055v-6.364h-2.681v-0.829h6.416V49.844z" id="path27"/><path class="st0" d="M113.529,49.844h-4.194v2.243h3.701v0.798h-3.701v3.323h-1.054v-7.192h5.248V49.844z" id="path29"/></g><path class="st0" d="M101.081,40.601" id="path31"/><path class="st0" d="M97.746,42.586" id="path33"/><path class="st0" d="M99.146,42.111" id="path35"/><path class="st0" d="M99.146,42.111" id="path37"/></g><path style="fill:#ffffff;fill-opacity:1" d="M 9.9128279,40.84851 C 9.095386,40.594242 8.3748592,39.96046 7.9830237,39.151037 7.7078144,38.582529 7.6586718,38.282416 7.7235787,37.566612 7.7939206,36.790871 8.1439858,36.024286 10.603789,31.259437 15.961629,20.880844 20.530164,11.494895 21.47872,8.9171452 22.274099,6.755663 22.211382,5.4252783 21.277044,4.6390848 c -0.369182,-0.3106467 -0.561409,-0.3706739 -0.936042,-0.2923 -1.190173,0.248987 -4.101292,2.1081744 -9.781533,6.2469812 -7.6042038,5.540667 -8.7659883,7.057297 -7.0168415,9.159998 0.7065494,0.849363 0.3288284,1.918524 -0.6777906,1.918524 -0.6446623,0 -0.9936203,-0.383106 -1.7013693,-1.867859 C 0.30336858,18.000068 0.06199814,16.892371 0.15206429,15.162902 0.33559962,11.638617 2.0071309,9.7667949 8.7428668,5.5427099 11.516289,3.8034539 15.760654,1.7032959 17.977259,0.97343194 c 3.000999,-0.98814198 4.865577,-1.14407876 6.398427,-0.53510782 1.558059,0.61898608 3.311956,3.95648728 3.330685,6.33797798 0.0081,1.0296092 -0.03006,1.1477907 -0.904175,2.8005944 -5.0385,9.5269255 -8.3727,15.9285265 -8.322392,15.9788345 0.03361,0.03361 2.158872,-2.662566 4.7228,-5.991505 5.223531,-6.782103 5.151514,-6.712718 6.605279,-6.363965 1.418885,0.340386 2.619067,1.587134 2.268508,2.356525 -0.08821,0.193612 -0.492122,0.520121 -0.89757,0.725579 -0.430705,0.218254 -1.208072,0.874119 -1.869839,1.577581 -2.488131,2.644898 -15.521804,18.588914 -16.083129,19.674397 -0.118822,0.229777 -0.287884,0.806412 -0.375692,1.281409 -0.21968,1.188358 -0.550379,1.763544 -1.160509,2.018472 -0.605668,0.253065 -0.999011,0.256227 -1.7768241,0.01429 l 0,-5e-6 z" id="path3371" inkscape:connector-curvature="0"/><path style="fill:#ffffff;fill-opacity:1" d="m 26.454734,40.841397 c -1.635196,-0.450173 -2.722163,-1.375872 -3.457537,-2.944562 -0.373205,-0.796117 -0.402149,-1.003455 -0.394659,-2.827109 0.0071,-1.732462 0.05864,-2.121982 0.430552,-3.254745 0.511321,-1.557383 1.830046,-4.145149 3.025401,-5.936817 0.964615,-1.445819 2.555645,-3.048851 3.925914,-3.955527 2.277237,-1.506797 4.874098,-1.968553 6.475718,-1.151468 1.377317,0.702655 2.10529,1.73719 2.10529,2.991867 0,0.756036 -0.259909,1.748926 -0.433513,1.656078 -2.217235,-1.18584 -3.346823,-1.388013 -4.981312,-0.891554 -1.825765,0.55456 -3.292996,1.883725 -5.16932,4.682892 -0.863933,1.288846 -2.029657,3.658636 -2.435434,4.950973 -0.443802,1.413443 -0.572712,3.587251 -0.257398,4.3405 0.324736,0.775756 0.857056,1.090782 1.685397,0.997416 2.499671,-0.281749 5.301587,-3.615169 6.597032,-7.848445 0.22843,-0.746466 0.232718,-0.879229 0.03667,-1.135376 -0.481897,-0.629619 -1.097226,-2.133468 -1.09734,-2.681873 -1.67e-4,-0.811431 0.332294,-1.359304 1.155903,-1.90484 0.852869,-0.564918 1.516412,-0.605875 2.33768,-0.144298 1.168837,0.656923 1.956103,2.003002 1.956103,3.344572 l 0,0.805643 1.342866,0.485979 c 0.738578,0.267287 1.436834,0.484221 1.551681,0.482074 0.337625,-0.0063 8.546983,-13.663953 10.254632,-17.0603 0.329751,-0.655843 0.750723,-1.69015 0.935491,-2.298462 0.299429,-0.985801 0.325245,-1.305856 0.237504,-2.9445105 -0.05414,-1.0111693 -0.03794,-1.930067 0.03601,-2.0419948 0.228255,-0.3454867 1.033265,0.194881 2.532943,1.7002522 1.674634,1.6809913 2.105287,2.4750461 2.10288,3.8773661 l -0.0017,0.983993 -3.721887,6.50949 c -4.427752,7.744029 -7.050654,12.451677 -8.766693,15.734678 -1.35535,2.592953 -1.325374,2.47173 -1.16274,4.702092 0.03143,0.430993 9.08e-4,0.456497 -0.599186,0.500159 -0.832361,0.06057 -1.869874,-0.466931 -3.028851,-1.539938 -1.592721,-1.474578 -1.989921,-2.941207 -1.218629,-4.4997 l 0.37788,-0.763559 -0.988613,-0.481685 c -0.771934,-0.376113 -1.004568,-0.435502 -1.061414,-0.270975 -0.283067,0.819269 -2.412261,3.624695 -3.808505,5.018088 -1.734929,1.731385 -3.012486,2.53787 -4.520444,2.853624 -0.969248,0.202955 -1.12737,0.19979 -1.998375,-0.04 z" id="path3373" inkscape:connector-curvature="0"/><path style="fill:#ffffff;fill-opacity:1" d="M 35.725491,71.105205 C 31.963233,70.489303 28.734251,68.694467 27.135453,66.330415 25.871944,64.462133 25.224868,61.928838 25.544208,60.1007 26.490341,54.684317 30.543563,50.095797 37.538301,46.522584 41.60717,44.444031 45.99405,43.36 52.946843,42.715021 c 2.466037,-0.228763 8.17623,-0.432552 9.618898,-0.343286 l 1.217114,0.07531 0.932964,-3.007433 c 1.120824,-3.613001 2.484872,-8.408209 2.412415,-8.480665 -0.02868,-0.02868 -0.283812,0.237346 -0.566957,0.591172 -1.179599,1.474066 -4.687775,5.055124 -5.96162,6.08547 -4.662354,3.771137 -8.386436,4.407363 -10.82446,1.849266 -0.818635,-0.858953 -1.141959,-1.396375 -1.436211,-2.387231 -0.314472,-1.058942 -0.298039,-1.965588 0.06108,-3.369714 0.71113,-2.78049 3.000549,-6.148906 5.909233,-8.694236 5.106827,-4.468881 9.660368,-5.275763 12.92663,-2.290585 0.448813,0.410191 0.857565,0.745801 0.908338,0.745801 0.05077,0 0.09231,-0.234408 0.09231,-0.520908 0,-0.286499 0.06612,-0.561773 0.146937,-0.61172 0.390299,-0.241217 2.124536,1.165266 2.870837,2.328275 0.704414,1.097735 0.741638,1.611258 0.188557,2.601309 -0.481235,0.86144 -1.018572,2.589632 -1.90244,6.118662 -0.607786,2.426717 -2.060913,8.911599 -2.060598,9.195857 1.15e-4,0.104456 0.425881,0.314618 0.946147,0.467027 1.316181,0.385569 1.819608,0.736418 2.476323,1.7258 0.569125,0.857423 1.478839,2.972386 1.391379,3.234767 -0.02556,0.07669 -0.303683,-0.03534 -0.618044,-0.248953 -0.758406,-0.51535 -2.316608,-1.092775 -3.86509,-1.432294 -1.168533,-0.25621 -1.265112,-0.257921 -1.34958,-0.0239 -0.430856,1.193671 -1.663991,3.888721 -2.784238,6.085024 -3.093922,6.065802 -5.885538,9.763643 -9.852241,13.050519 -3.607605,2.989323 -6.132598,4.299049 -10.339148,5.362963 -1.877673,0.474897 -5.731793,0.615897 -7.759885,0.283887 z m 3.921412,-6.597033 c 3.968611,-0.397496 7.682096,-1.811706 10.650729,-4.05612 2.301894,-1.740331 5.498338,-5.398892 8.032903,-9.19424 1.326001,-1.985601 3.39655,-5.535002 3.39655,-5.822473 0,-0.106617 -0.229608,-0.137331 -0.64338,-0.08607 -0.353859,0.04384 -1.494912,0.120044 -2.535673,0.169334 -4.514929,0.213828 -9.23432,0.750028 -11.381169,1.293088 -3.019719,0.763856 -6.778148,2.283203 -9.151449,3.699479 -3.141166,1.874498 -5.742124,4.45526 -6.743454,6.691088 -0.454415,1.014644 -0.441028,2.669817 0.03159,3.905422 0.470698,1.230595 1.865787,2.644046 2.971846,3.01096 1.507547,0.500102 3.108463,0.616196 5.37151,0.389528 z M 53.562747,37.020689 c 2.756643,-0.818356 6.872568,-4.150516 9.982978,-8.081994 1.467438,-1.854806 1.962388,-2.815102 1.964468,-3.811446 0.0018,-0.858964 -0.35962,-1.210439 -1.534489,-1.492286 -2.214358,-0.531216 -5.086882,0.592895 -7.43107,2.908018 -1.809009,1.786578 -4.153725,4.949076 -5.011167,6.758944 -0.418382,0.883109 -0.478917,1.17025 -0.478917,2.271704 0,1.073254 0.04371,1.292829 0.293855,1.475988 0.386567,0.283056 1.199186,0.272441 2.214342,-0.02893 z" id="path3375" inkscape:connector-curvature="0"/><path style="fill:#ffffff;fill-opacity:1" d="m 93.55654,45.450624 c -1.630488,-0.6433 -3.205595,-1.693008 -4.331866,-2.886913 -1.642918,-1.741579 -2.367931,-3.562063 -2.367931,-5.945789 0,-1.272156 -0.0041,-1.286108 -0.435508,-1.464782 -0.427563,-0.177103 -0.468415,-0.14775 -2.239361,1.609006 -2.074935,2.05831 -4.17212,3.616173 -5.802606,4.310381 -2.165166,0.921858 -4.145361,0.603628 -5.813834,-0.934316 -1.053668,-0.971237 -1.503884,-2.030388 -1.577382,-3.710852 -0.144276,-3.298751 1.652232,-7.129671 4.944961,-10.544761 4.047321,-4.197724 8.468452,-5.526377 12.197634,-3.665672 1.631708,0.814155 2.509239,2.058027 2.629012,3.726541 0.08245,1.148669 0.219656,1.331161 1.21428,1.615134 0.35826,0.102286 0.684986,0.273545 0.726058,0.380576 0.04107,0.10703 -0.09437,0.699289 -0.300975,1.316131 -0.698477,2.085361 -1.033151,4.12706 -1.039948,6.34426 -0.01332,4.344455 1.27023,6.622235 4.146984,7.359225 0.769789,0.197212 1.075693,0.206414 1.851159,0.05569 0.510938,-0.09931 1.052636,-0.187947 1.203773,-0.196974 0.433565,-0.0259 2.17145,-1.545831 2.90167,-2.537773 0.77523,-1.053066 1.49698,-2.822304 1.75441,-4.300599 0.34813,-1.999086 -0.0529,-4.792878 -0.91884,-6.40153 l -0.43024,-0.799229 0.32847,-0.21491 c 0.59884,-0.391801 2.12424,-0.713999 3.7346,-0.788829 2.06582,-0.09599 2.59529,0.07541 3.36184,1.088362 1.14141,1.508297 1.54126,3.743225 1.12398,6.282414 -0.52927,3.220631 -1.64191,5.121219 -4.19293,7.162283 -3.00298,2.402683 -6.368587,3.594139 -10.114799,3.580734 -1.237516,-0.0044 -1.620793,-0.07017 -2.552611,-0.43781 z M 77.950567,38.921432 c 1.845046,-0.621552 3.732814,-2.110828 5.81366,-4.586446 1.356005,-1.613262 4.303584,-5.89984 4.303584,-6.258576 0,-0.729828 -1.193614,-2.136293 -2.152352,-2.536171 -2.138356,-0.891881 -5.449723,0.9807 -8.545572,4.832529 -2.611706,3.249461 -3.908634,6.491753 -3.168914,7.922213 0.137555,0.266002 0.265381,0.484666 0.284058,0.48592 0.01868,0.0012 0.306449,0.100447 0.639492,0.220429 0.852629,0.307171 1.752573,0.281728 2.826044,-0.0799 z" id="path3377" inkscape:connector-curvature="0"/><path style="fill:#ffffff;fill-opacity:1" d="m 100.79159,47.18103 c 4.81249,-0.583411 7.88342,-1.569329 9.10713,-2.92383 0.88931,-0.984362 0.8888,-1.900269 -0.002,-3.24875 -0.20733,-0.313921 -0.34996,-0.5937 -0.31696,-0.621732 0.23439,-0.199112 2.20121,-0.72892 2.98792,-0.804866 l 0.95993,-0.09267 -0.10188,0.893633 c -0.056,0.491498 -0.1368,1.018673 -0.17948,1.171499 -0.0735,0.263077 -0.0955,0.261063 -0.41366,-0.03785 -0.41855,-0.393202 -0.87146,-0.403434 -1.21179,-0.02738 -0.25072,0.277047 -0.23331,0.30735 0.44479,0.77389 0.82001,0.564184 1.58583,1.681073 1.58583,2.312816 0,0.617907 -0.3694,1.325027 -1.02832,1.968441 l -0.56421,0.550941 -2.04218,0.155782 c -1.12319,0.08568 -4.01773,0.148559 -6.43229,0.139731 -4.334147,-0.01585 -4.369759,-0.01852 -2.79303,-0.209664 z" id="path3379" inkscape:connector-curvature="0"/><path style="fill:#ffffff;fill-opacity:1" d="m 108.3532,52.63021 0,-3.557512 2.57352,0 2.57352,0 0,0.378458 0,0.378459 -2.11937,0 -2.11937,0 0,1.135376 0,1.135376 1.8166,0 1.8166,0 0,0.378459 0,0.378459 -1.8166,0 -1.8166,0 0,1.665218 0,1.665218 -0.45415,0 -0.45415,0 0,-3.557511 z" id="path3381" inkscape:connector-curvature="0"/><path style="fill:#ffffff;fill-opacity:1" d="m 103.66031,53.008668 0,-3.179053 -1.28676,0 c -1.27162,0 -1.28676,-0.0045 -1.28676,-0.378459 l 0,-0.378458 3.10336,0 3.10336,0 0,0.378458 c 0,0.375656 -0.0101,0.378459 -1.36245,0.378459 l -1.36245,0 0,3.179053 0,3.179053 -0.45415,0 -0.45415,0 0,-3.179053 z" id="path3383" inkscape:connector-curvature="0"/><path style="fill:#ffffff;fill-opacity:1" d="m 96.316549,56.311532 c -0.304814,-0.04351 -0.818403,-0.205498 -1.097226,-0.346074 -0.789987,-0.398293 -1.340251,-1.038211 -1.633179,-1.899269 -0.226831,-0.66677 -0.282624,-1.629233 -0.135339,-2.3347 0.235935,-1.130084 0.90941,-2.01872 1.878856,-2.479108 1.427502,-0.677917 3.43615,-0.415133 4.432693,0.579914 0.326836,0.326341 0.530916,0.719304 0.639806,1.231919 l 0.0221,0.104076 -0.51283,0 c -0.455096,0 -0.515216,-0.0075 -0.534041,-0.06623 -0.01167,-0.03643 -0.07919,-0.18769 -0.150052,-0.33614 -0.23152,-0.485018 -0.742956,-0.869353 -1.361562,-1.02319 -0.365906,-0.09099 -1.193518,-0.09132 -1.530313,-6e-4 -0.736382,0.198351 -1.259942,0.623948 -1.591478,1.293699 -0.258964,0.523144 -0.315085,0.804637 -0.316902,1.589527 -0.0018,0.797402 0.03981,1.009438 0.308526,1.570603 0.14107,0.294597 0.224199,0.411235 0.460244,0.645764 0.319667,0.317614 0.532436,0.450548 0.942166,0.588649 0.484681,0.163364 1.301183,0.181194 1.780408,0.03888 0.568361,-0.168785 1.02467,-0.545313 1.267895,-1.046216 0.137484,-0.283139 0.252502,-0.657405 0.252502,-0.821638 0,-0.08608 0.0035,-0.08666 0.51613,-0.08666 l 0.516127,0 -0.0253,0.215647 c -0.0364,0.310025 -0.22891,0.85825 -0.40926,1.165727 -0.08638,0.147276 -0.283297,0.39097 -0.443425,0.548765 -0.459076,0.45239 -1.012643,0.719678 -1.760634,0.850117 -0.358888,0.06258 -1.134046,0.07104 -1.515882,0.01654 z" id="path3385" inkscape:connector-curvature="0"/></svg>