<?xml version="1.0" encoding="UTF-8" standalone="no"?>
<!-- Generator: Adobe Illustrator 17.1.0, SVG Export Plug-In . SVG Version: 6.00 Build 0)  -->

<svg
   xmlns:dc="http://purl.org/dc/elements/1.1/"
   xmlns:cc="http://creativecommons.org/ns#"
   xmlns:rdf="http://www.w3.org/1999/02/22-rdf-syntax-ns#"
   xmlns:svg="http://www.w3.org/2000/svg"
   xmlns="http://www.w3.org/2000/svg"
   xmlns:sodipodi="http://sodipodi.sourceforge.net/DTD/sodipodi-0.dtd"
   xmlns:inkscape="http://www.inkscape.org/namespaces/inkscape"
   version="1.1"
   id="Layer_1"
   x="0px"
   y="0px"
   viewBox="0 0 481.64301 271.76946"
   enable-background="new 0 0 595.3 841.9"
   xml:space="preserve"
   inkscape:version="0.48.4 r9939"
   width="100%"
   height="100%"
   sodipodi:docname="logo.svg"><metadata
     id="metadata37"><rdf:RDF><cc:Work
         rdf:about=""><dc:format>image/svg+xml</dc:format><dc:type
           rdf:resource="http://purl.org/dc/dcmitype/StillImage" /><dc:title></dc:title></cc:Work></rdf:RDF></metadata><defs
     id="defs35" /><sodipodi:namedview
     pagecolor="#ffffff"
     bordercolor="#666666"
     borderopacity="1"
     objecttolerance="10"
     gridtolerance="10"
     guidetolerance="10"
     inkscape:pageopacity="0"
     inkscape:pageshadow="2"
     inkscape:window-width="1215"
     inkscape:window-height="1000"
     id="namedview33"
     showgrid="false"
     fit-margin-top="0"
     fit-margin-left="0"
     fit-margin-right="0"
     fit-margin-bottom="0"
     inkscape:zoom="1.1212733"
     inkscape:cx="413.11159"
     inkscape:cy="189.93915"
     inkscape:window-x="65"
     inkscape:window-y="24"
     inkscape:window-maximized="1"
     inkscape:current-layer="Layer_1" /><g
     id="g3"
     style="fill:#ffffff"
     transform="translate(-65.15698,-216.80163)"><path
       d="m 72.5,296.3 c -5.9,-8.4 -15.1,-29.4 4.8,-45.2 14.5,-11.5 37.3,-25.2 54.9,-31.2 14.6,-4.9 25.3,-4.1 29.4,3.2 0,0 9.1,12.7 6.4,23.4 -0.5,2 -6.9,13.1 -6.9,13.1 l -27.6,52.4 33.6,-43.6 c 0,0 1.5,-2.6 5.2,-3.2 6,-1 16.9,7.1 10.7,11.2 -0.9,0.6 -2.2,1.2 -3.7,1.8 -2.6,-0.7 -58.2,69.1 -63.3,75.5 -1.7,2.1 -2.8,4.9 -2.9,6.6 -0.2,4.1 -2,12.3 -13.5,7.8 0,0 -11.9,-6.5 -3.3,-20.2 0,0 33.5,-64.3 38.8,-76.9 5.2,-12.4 18,-32.1 7.7,-37.7 0,0 -2.5,-2 -13.7,5.7 0.1,-0.1 -46,31 -50.1,38.2 0,0 -4,4 -3.3,8.3 0.8,4.1 4.8,5.2 4.1,8.8 -0.7,4.8 -6.2,3.5 -7.3,2 z"
       id="path5"
       style="fill:#ffffff"
       inkscape:connector-curvature="0" /><path
       d="m 316.5,377 c 1.1,-4.4 2.3,-9.7 3.5,-16 7.8,-40.4 6.7,-39.2 11.1,-44.1 4.4,-4.8 -6,-15.4 -10.3,-17.3 0,0 -3.1,-2.6 -2.8,4.5 0,0 -18.2,-27.9 -56.5,9.9 0,0 -30.8,30.8 -11.9,49.4 0,0 13.2,18.6 45.2,-10.6 0,0 16.3,-16.3 19.5,-21.1 0,0 -4.9,19 -12.6,42.2 -20.7,-3.3 -53.4,-4.7 -90.7,7.5 0,0 -76.3,17.7 -60,64.8 -0.1,-0.1 6,32.7 50.9,40.8 27.7,5 50.6,-2.4 66.4,-15.6 13.8,-11.5 23.3,-29.8 25.5,-33.5 3,-5 10.2,-24.2 12,-29.2 2.4,-6.7 4.5,-11.5 6.6,-17.5 6.6,2.1 12.8,5 18.5,8.8 0,0 3.1,-4.8 -6,-20.5 -0.1,0 -3.1,-1.2 -8.4,-2.5 z m -19.7,-51.4 c -7.7,10.1 -17.4,17.8 -23.5,22.1 -10.9,7.8 -19.6,8.1 -20.8,5.7 -1.9,-6.6 0.5,-12.7 4.8,-19.2 3.5,-5.4 9.2,-12.2 9.2,-12.2 19.8,-25.2 38,-17.5 38.9,-14.2 1.1,6.8 -3.9,11.6 -8.6,17.8 z M 285.4,416 c -10.3,22.8 -25.8,39.1 -30.3,43 -14.8,13.1 -31.3,17.8 -52.5,14.8 0,0 -27.7,-3.1 -40.1,-21.5 -1.1,-1.6 -6,-10.8 -3.8,-19 2.5,-9.5 12.4,-18.2 16.5,-21 7.7,-5.2 18.7,-10.6 34,-14.9 0,0 46.3,-16 87.5,-9.8 -3.4,9.6 -7.2,19.3 -11.3,28.4 z"
       id="path7"
       style="fill:#ffffff"
       inkscape:connector-curvature="0" /><path
       d="m 214.9,333.1 c -1.8,2.9 -4.8,6.7 -5.8,7.8 -3,3.3 -8.1,11 0.6,19.7 7.2,7.2 11.7,7.8 14.5,7 1,-0.2 1.4,-0.3 1.1,-2.6 -0.2,-1.7 -1.4,-4.8 -0.2,-8.4 2.6,-7.6 45.9,-83.2 49.1,-88.2 2.2,-3.4 4.4,-11.3 -5.2,-20.5 -9.6,-9.2 -13.1,-12.1 -10.7,2.6 -0.1,1 2,7.7 -9.8,26.7 -0.3,0.6 -4.7,8.1 -8.8,15.6 -3.7,6.2 -22.1,35.8 -24.8,40.3 z"
       id="path9"
       style="fill:#ffffff"
       inkscape:connector-curvature="0" /><path
       d="m 207.2,312 c 0,0 -16.6,-15.2 -33.8,7.7 -17.3,22.8 -17,40.3 -11.5,43.1 5.5,2.8 21.3,-4.7 28.8,-31.7 0,0 -10.6,-12.4 -1.1,-17.8 0,0 5.8,-6.4 13.1,1.9 0,0 5.2,4.6 3.8,12.4 0,0 9.1,3.8 13.8,4.8 4.7,1 -5,11.7 -9.7,10.7 l -8.2,-4 c 0,0 -21.5,40.3 -43.9,27.8 0,0 -26.2,-13.1 6,-58.1 0,0 14.9,-19.4 33.3,-16.4 -0.1,0 16.5,4.2 9.4,19.6 z"
       id="path11"
       style="fill:#ffffff"
       inkscape:connector-curvature="0" /><g
       enable-background="new    "
       id="g13"
       style="fill:#ffffff"><path
         d="m 395.7,315.9 c 3.3,2.2 7.8,5.4 7,7.5 -1.9,5 -10.5,19.8 -15.1,32.1 -3.3,8.8 -4.5,16.3 0.6,18.1 4.4,1.6 11.1,0.1 14.7,-3.3 2.4,0.3 3.6,-1.8 4.2,-1.6 0.8,0.3 0.4,1.3 0.2,1.9 -3.4,9.2 -15.9,14 -25.2,10.7 -7.8,-2.9 -13.3,-11.6 -9.5,-27.9 -9.9,10.1 -21,16.7 -28.9,13.8 -13.9,-5.1 -15.2,-20 -9.6,-34.9 8,-21.7 30.4,-43.6 49.4,-36.6 10.8,3.9 13.8,11.7 12.2,20.2 z m -8.7,2.7 c -2,-5.1 -4.6,-8 -7.6,-9.1 -12.5,-4.6 -31.1,20.3 -36.1,34 -2.6,7.1 -2.5,12.9 1.5,14.4 16.4,6 35.3,-26.3 42.2,-39.3 z"
         id="path15"
         style="fill:#ffffff"
         inkscape:connector-curvature="0" /></g><path
       d="m 412.2,303.7 c 0,0 5.6,14.7 -5.3,53.6 0,0 21.2,-39.7 5.3,-53.6 z"
       id="path17"
       style="fill:#ffffff"
       inkscape:connector-curvature="0" /><path
       d="m 406.9,357.3 c 0,0 48.2,-32.3 24.8,-62.4 0,0 10.8,-6.1 21.7,-2.9 0,0 14,8.5 3.4,40.5 0.1,0 -13.2,30.1 -49.9,24.8 z"
       id="path19"
       style="fill:#ffffff"
       inkscape:connector-curvature="0" /><path
       d="m 412.7,364.8 c 0,0 61.9,-1.5 42.1,-25.3 0,0 8.4,-3.9 14,-3.4 l -1.2,9.5 c 0,0 -2.8,-5.7 -5.9,-1.2 0,0 14.9,8.4 2.6,18.8 0,0 3.8,2.5 -51.6,1.6 z"
       id="path21"
       style="fill:#ffffff"
       inkscape:connector-curvature="0" /><g
       id="g23"
       style="fill:#ffffff"><g
         enable-background="new    "
         id="g25"
         style="fill:#ffffff"><path
           d="m 477.9,364.8 c -1.1,0 -2.2,0.2 -3.3,0.6 -1.1,0.4 -2,1.1 -2.9,2.1 -0.8,1 -1.5,2.4 -2,4.1 -0.5,1.7 -0.8,3.8 -0.8,6.4 0,2.6 0.3,4.7 0.8,6.4 0.5,1.7 1.2,3.1 2.1,4.1 0.9,1 1.9,1.7 3.1,2.1 1.2,0.4 2.4,0.6 3.7,0.6 1,0 2.1,-0.2 3.2,-0.5 1.1,-0.4 2.1,-0.9 3,-1.5 0.9,-0.6 1.7,-1.4 2.3,-2.3 0.6,-0.9 1,-1.8 1.2,-2.8 h 0.9 c -0.2,1.2 -0.6,2.2 -1.2,3.2 -0.6,1 -1.4,1.8 -2.4,2.5 -1,0.7 -2.1,1.2 -3.4,1.6 -1.3,0.4 -2.6,0.6 -4.1,0.6 -1.9,0 -3.7,-0.3 -5.4,-0.9 -1.8,-0.6 -3.3,-1.4 -4.7,-2.6 -1.4,-1.2 -2.5,-2.6 -3.3,-4.4 -0.8,-1.8 -1.2,-3.8 -1.2,-6.2 0,-2.4 0.4,-4.4 1.2,-6.2 0.8,-1.8 1.9,-3.2 3.2,-4.4 1.3,-1.2 2.8,-2 4.5,-2.6 1.7,-0.6 3.4,-0.9 5.1,-0.9 1,0 1.8,0.1 2.6,0.3 0.8,0.2 1.4,0.4 2,0.7 0.6,0.3 1.2,0.6 1.7,1 0.3,-0.4 0.7,-0.7 1.3,-1.1 0.5,-0.3 1.1,-0.6 1.7,-0.7 h 0.9 c -0.1,0.4 -0.1,0.8 -0.2,1.2 0,0.4 -0.1,0.7 -0.1,1.1 0,0.4 0,0.8 0,1.2 0,0.4 0,0.9 0,1.3 0,0.4 0,0.8 0.1,1.2 0,0.4 0.1,0.8 0.2,1.2 h -0.9 c -0.9,-2.1 -2.1,-3.7 -3.7,-4.9 -1.7,-0.9 -3.4,-1.5 -5.2,-1.5 z"
           id="path27"
           style="fill:#ffffff"
           inkscape:connector-curvature="0" /><path
           d="m 507.5,390.6 3.6,0.6 v 0.4 h -12.3 v -0.4 l 3.6,-0.6 v -25.2 h -6.3 c 0,1.1 -0.3,2.1 -1,3 -0.7,0.9 -1.5,1.7 -2.6,2.4 H 492 c 0,-0.3 0.1,-0.7 0.1,-1 0,-0.3 0.1,-0.6 0.1,-1 0,-0.3 0.1,-0.7 0.1,-1.1 0,-0.5 0,-0.9 -0.1,-1.3 0,-0.4 -0.1,-0.7 -0.1,-1 0,-0.3 -0.1,-0.6 -0.1,-0.8 h 26 c -0.1,0.2 -0.1,0.5 -0.2,0.8 0,0.3 -0.1,0.6 -0.1,1 0,0.4 0,0.8 0,1.3 0,0.4 0,0.7 0,1.1 0,0.3 0,0.7 0.1,1 0,0.4 0.1,0.7 0.2,1 h -0.6 c -1,-0.7 -1.9,-1.5 -2.6,-2.4 -0.7,-0.9 -1,-1.9 -1,-3 h -6.3 v 25.2 z"
           id="path29"
           style="fill:#ffffff"
           inkscape:connector-curvature="0" /><path
           d="m 531.2,377.7 v 12.9 l 3.6,0.6 v 0.4 h -12.3 v -0.4 l 3.6,-0.6 v -25 l -3.6,-0.6 v -0.4 h 24.3 c -0.1,0.2 -0.1,0.5 -0.2,0.8 0,0.3 -0.1,0.6 -0.1,1 0,0.4 0,0.8 0,1.3 0,0.4 0,0.7 0,1.1 0,0.3 0,0.7 0.1,1 0,0.4 0.1,0.7 0.2,1 h -0.6 c -1,-0.7 -1.9,-1.5 -2.6,-2.4 -0.7,-0.9 -1,-1.9 -1,-3 h -11.4 v 11.5 h 5.7 l 2.7,-3.5 h 0.6 v 7.7 h -0.6 l -2.7,-3.5 h -5.7 z"
           id="path31"
           style="fill:#ffffff"
           inkscape:connector-curvature="0" /></g></g></g></svg>