<?xml version="1.0" encoding="UTF-8" standalone="no"?>
<!-- Creator: CorelDRAW X6 -->

<svg
   xmlns:dc="http://purl.org/dc/elements/1.1/"
   xmlns:cc="http://creativecommons.org/ns#"
   xmlns:rdf="http://www.w3.org/1999/02/22-rdf-syntax-ns#"
   xmlns:svg="http://www.w3.org/2000/svg"
   xmlns="http://www.w3.org/2000/svg"
   xmlns:xlink="http://www.w3.org/1999/xlink"
   xmlns:sodipodi="http://sodipodi.sourceforge.net/DTD/sodipodi-0.dtd"
   xmlns:inkscape="http://www.inkscape.org/namespaces/inkscape"
   xml:space="preserve"
   width="15.931882in"
   height="15.931882in"
   version="1.1"
   style="clip-rule:evenodd;fill-rule:evenodd;image-rendering:optimizeQuality;shape-rendering:geometricPrecision;text-rendering:geometricPrecision"
   viewBox="0 0 15931.786 15932.017"
   id="svg3336"
   inkscape:version="0.91 r13725"
   sodipodi:docname="logo_ny.svg"><metadata
     id="metadata3471"><rdf:RDF><cc:Work
         rdf:about=""><dc:format>image/svg+xml</dc:format><dc:type
           rdf:resource="http://purl.org/dc/dcmitype/StillImage" /><dc:title></dc:title></cc:Work></rdf:RDF></metadata><sodipodi:namedview
     pagecolor="#ffffff"
     bordercolor="#666666"
     borderopacity="1"
     objecttolerance="10"
     gridtolerance="10"
     guidetolerance="10"
     inkscape:pageopacity="0"
     inkscape:pageshadow="2"
     inkscape:window-width="1920"
     inkscape:window-height="1017"
     id="namedview3469"
     showgrid="false"
     fit-margin-top="1"
     fit-margin-left="1"
     fit-margin-right="1"
     fit-margin-bottom="1"
     inkscape:zoom="0.40290358"
     inkscape:cx="716.94444"
     inkscape:cy="716.93483"
     inkscape:window-x="-8"
     inkscape:window-y="-8"
     inkscape:window-maximized="1"
     inkscape:current-layer="svg3336" /><defs
     id="defs3338"><style
       type="text/css"
       id="style3340"><![CDATA[
    .fil2 {fill:#373435}
    .fil6 {fill:#727376}
    .fil0 {fill:#FEFEFE}
    .fil1 {fill:#373435;fill-rule:nonzero}
    .fil7 {fill:url(#id8)}
    .fil5 {fill:url(#id9)}
    .fil4 {fill:url(#id10)}
    .fil3 {fill:url(#id11)}
   ]]></style><mask
       id="id0"><linearGradient
         id="id1"
         gradientUnits="userSpaceOnUse"
         x1="16328"
         y1="14074.6"
         x2="15128.4"
         y2="14141.6"><stop
           offset="0"
           style="stop-opacity:1; stop-color:white"
           id="stop3344" /><stop
           offset="1"
           style="stop-opacity:0; stop-color:white"
           id="stop3346" /></linearGradient><rect
         style="fill:url(#id1)"
         x="15095"
         y="13396"
         width="1266"
         height="1424"
         id="rect3348" /></mask><mask
       id="id2"><linearGradient
         id="id3"
         gradientUnits="userSpaceOnUse"
         x1="16782.199"
         y1="14074.6"
         x2="17981.9"
         y2="14141.6"><stop
           offset="0"
           style="stop-opacity:1; stop-color:white"
           id="stop3352" /><stop
           offset="1"
           style="stop-opacity:0; stop-color:white"
           id="stop3354" /></linearGradient><rect
         style="fill:url(#id3)"
         x="16749"
         y="13396"
         width="1266"
         height="1424"
         id="rect3356" /></mask><mask
       id="id4"><linearGradient
         id="id5"
         gradientUnits="userSpaceOnUse"
         x1="15109.2"
         y1="14095.2"
         x2="16272.6"
         y2="14095.2"><stop
           offset="0"
           style="stop-opacity:1; stop-color:white"
           id="stop3360" /><stop
           offset="1"
           style="stop-opacity:0; stop-color:white"
           id="stop3362" /></linearGradient><rect
         style="fill:url(#id5)"
         x="15105"
         y="13527"
         width="1171"
         height="1136"
         id="rect3364" /></mask><mask
       id="id6"><linearGradient
         id="id7"
         gradientUnits="userSpaceOnUse"
         x1="18001"
         y1="14095.2"
         x2="16837.6"
         y2="14095.2"><stop
           offset="0"
           style="stop-opacity:1; stop-color:white"
           id="stop3368" /><stop
           offset="1"
           style="stop-opacity:0; stop-color:white"
           id="stop3370" /></linearGradient><rect
         style="fill:url(#id7)"
         x="16834"
         y="13527"
         width="1171"
         height="1136"
         id="rect3372" /></mask><linearGradient
       id="id8"
       gradientUnits="userSpaceOnUse"
       x1="16555.1"
       y1="14253.4"
       x2="16555.1"
       y2="13729.2"><stop
         offset="0"
         style="stop-color:#727376"
         id="stop3375" /><stop
         offset="0.129412"
         style="stop-color:#373435"
         id="stop3377" /><stop
         offset="0.25098"
         style="stop-color:#373435"
         id="stop3379" /><stop
         offset="0.65098"
         style="stop-color:#606062"
         id="stop3381" /><stop
         offset="1"
         style="stop-color:#D2D3D5"
         id="stop3383" /></linearGradient><linearGradient
       id="id9"
       gradientUnits="userSpaceOnUse"
       x1="17291.6"
       y1="9676.5898"
       x2="15801"
       y2="10266.2"><stop
         offset="0"
         style="stop-color:#96989A"
         id="stop3386" /><stop
         offset="0.270588"
         style="stop-color:#676668"
         id="stop3388" /><stop
         offset="1"
         style="stop-color:#373435"
         id="stop3390" /></linearGradient><linearGradient
       id="id10"
       gradientUnits="userSpaceOnUse"
       x1="16331.2"
       y1="8409.1504"
       x2="16787.1"
       y2="8775.6699"><stop
         offset="0"
         style="stop-color:#96989A"
         id="stop3393" /><stop
         offset="1"
         style="stop-color:#373435"
         id="stop3395" /></linearGradient><linearGradient
       id="id11"
       gradientUnits="userSpaceOnUse"
       x1="15492.6"
       y1="9242.3896"
       x2="17625.6"
       y2="9986.2803"><stop
         offset="0"
         style="stop-color:#96989A"
         id="stop3398" /><stop
         offset="0.321569"
         style="stop-color:#676668"
         id="stop3400" /><stop
         offset="1"
         style="stop-color:#373435"
         id="stop3402" /></linearGradient><linearGradient
       inkscape:collect="always"
       xlink:href="#id8"
       id="linearGradient3473"
       gradientUnits="userSpaceOnUse"
       x1="16555.1"
       y1="14253.4"
       x2="16555.1"
       y2="13729.2" /><linearGradient
       inkscape:collect="always"
       xlink:href="#id8"
       id="linearGradient3475"
       gradientUnits="userSpaceOnUse"
       x1="16555.1"
       y1="14253.4"
       x2="16555.1"
       y2="13729.2" /></defs><g
     id="Слой_x0020_1"
     transform="translate(-8589.1217,-3726.9915)"><metadata
       id="CorelCorpID_0Corel-Layer" /><g
       id="_257952640"><circle
         class="fil0"
         cx="16555"
         cy="11693"
         r="6966"
         id="circle3407"
         style="fill:#fefefe" /><circle
         class="fil0"
         cx="16555"
         cy="11693"
         r="6769"
         id="circle3409"
         style="fill:#fefefe" /><path
         class="fil1"
         d="m 16555,4727 c 1923,0 3665,780 4925,2041 1261,1261 2041,3002 2041,4925 0,1923 -780,3665 -2041,4925 -1261,1261 -3002,2041 -4925,2041 -1923,0 -3665,-780 -4925,-2041 -1261,-1261 -2041,-3002 -2041,-4925 0,-1923 780,-3665 2041,-4925 1261,-1261 3002,-2041 4925,-2041 z m 4647,2319 C 20013,5857 18370,5121 16555,5121 c -1815,0 -3458,736 -4647,1925 -1189,1189 -1925,2832 -1925,4647 0,1815 736,3458 1925,4647 1189,1189 2832,1925 4647,1925 1815,0 3458,-736 4647,-1925 1189,-1189 1925,-2832 1925,-4647 0,-1815 -736,-3458 -1925,-4647 z"
         id="path3411"
         inkscape:connector-curvature="0"
         style="fill:#373435;fill-rule:nonzero" /><path
         class="fil1"
         d="m 16555,7259 c 1224,0 2332,496 3135,1299 802,802 1299,1911 1299,3135 0,1224 -496,2332 -1299,3135 -802,802 -1911,1299 -3135,1299 -1224,0 -2332,-496 -3135,-1299 -802,-802 -1299,-1911 -1299,-3135 0,-1224 496,-2332 1299,-3135 802,-802 1911,-1299 3135,-1299 z m 2856,1577 c -731,-731 -1741,-1183 -2856,-1183 -1115,0 -2125,452 -2856,1183 -731,731 -1183,1741 -1183,2856 0,1115 452,2125 1183,2856 731,731 1741,1183 2856,1183 1115,0 2125,-452 2856,-1183 731,-731 1183,-1741 1183,-2856 0,-1115 -452,-2125 -1183,-2856 z"
         id="path3413"
         inkscape:connector-curvature="0"
         style="fill:#373435;fill-rule:nonzero" /><g
         id="g3415"><path
           class="fil2"
           d="m 22079,11746 c -231,0 -418,186 -418,416 0,230 187,417 418,417 231,0 417,-187 417,-417 0,-230 -186,-416 -417,-416 z"
           id="path3417"
           inkscape:connector-curvature="0"
           style="fill:#373435" /><path
           class="fil2"
           d="m 11088,11746 c -231,0 -418,186 -418,416 0,230 187,417 418,417 231,0 417,-187 417,-417 0,-230 -186,-416 -417,-416 z"
           id="path3419"
           inkscape:connector-curvature="0"
           style="fill:#373435" /></g><g
         id="g3421"><g
           id="g3423"><path
             class="fil2"
             d="m 19840,12103 c 0,0 -9,-295 -394,-182 0,0 244,-14 237,244 -2,81 -3,212 -240,239 0,0 369,128 397,-179 0,0 58,177 310,-59 0,0 -240,-258 -310,-63 z"
             id="path3425"
             inkscape:connector-curvature="0"
             style="fill:#373435" /><path
             class="fil2"
             d="m 19343,12266 c 56,-1 102,-47 102,-103 0,-57 -46,-103 -102,-102 -39,0 -74,23 -90,56 l 0,-5 -2016,0 c -21,-66 -83,-115 -156,-115 -91,0 -165,74 -165,165 0,91 73,165 165,165 73,0 135,-49 156,-115 l 2016,0 0,-3 c 17,33 51,57 91,56 z"
             id="path3427"
             inkscape:connector-curvature="0"
             style="fill:#373435" /></g><g
           id="g3429"><path
             class="fil2"
             d="m 13270,12103 c 0,0 9,-295 394,-182 0,0 -244,-14 -237,244 2,81 3,212 240,239 0,0 -369,128 -397,-179 0,0 -58,177 -310,-59 0,0 240,-258 310,-63 z"
             id="path3431"
             inkscape:connector-curvature="0"
             style="fill:#373435" /><path
             class="fil2"
             d="m 13767,12266 c -56,-1 -102,-47 -102,-103 0,-57 46,-103 102,-102 39,0 74,23 90,56 l 0,-5 2016,0 c 21,-66 83,-115 156,-115 91,0 165,74 165,165 0,91 -73,165 -165,165 -73,0 -135,-49 -156,-115 l -2016,0 0,-3 c -17,33 -51,57 -91,56 z"
             id="path3433"
             inkscape:connector-curvature="0"
             style="fill:#373435" /></g><path
           class="fil2"
           d="m 16555,11923 c -133,0 -240,107 -240,240 0,133 108,240 240,240 133,0 240,-107 240,-240 0,-132 -107,-240 -240,-240 z"
           id="path3435"
           inkscape:connector-curvature="0"
           style="fill:#373435" /></g><g
         id="g3437"><path
           class="fil3"
           d="m 15154,9723 c -44,0 -243,23 -262,35 -30,0 -274,73 -290,84 -39,9 -132,49 -169,67 -55,26 -110,48 -163,76 -62,33 -125,63 -185,98 -29,17 -60,35 -90,51 -19,10 -77,41 -90,52 156,0 404,93 522,140 40,16 78,31 118,48 38,16 82,32 116,50 38,19 78,32 117,50 38,17 77,35 115,52 76,34 154,66 230,102 73,35 156,70 232,100 80,32 157,63 237,95 35,14 218,81 251,82 12,9 365,90 402,91 21,14 275,33 330,33 l 110,0 c 257,0 525,-72 721,-135 218,-71 411,-159 607,-252 194,-92 379,-193 570,-289 131,-65 455,-227 632,-227 -24,-21 -100,-55 -133,-75 -42,-26 -91,-51 -137,-74 -92,-46 -194,-86 -298,-121 -94,-32 -229,-69 -334,-85 -61,-9 -117,-17 -181,-27 -54,-8 -132,-18 -192,-18 l -9,0 c 0,-22 -11,-94 -15,-118 -8,-39 -11,-77 -20,-113 -9,-35 -14,-74 -23,-110 -9,-35 -19,-74 -26,-110 -7,-35 -19,-70 -28,-106 -7,-29 -20,-76 -31,-105 -11,-29 -24,-74 -32,-102 -9,-34 -23,-69 -34,-102 -56,-162 -240,-661 -413,-661 l -66,0 c -113,0 -238,49 -328,77 -90,29 -234,57 -351,57 l -115,0 c -76,0 -176,-19 -242,-32 -36,-7 -75,-19 -109,-29 -25,-7 -86,-29 -108,-30 -17,-14 -158,-40 -199,-40 l -3,-1 -75,11 c -60,5 -115,47 -144,86 -36,49 -58,88 -86,144 -25,51 -48,105 -69,160 -21,55 -38,118 -59,170 -22,52 -34,120 -53,177 -17,49 -37,131 -47,182 -38,199 -76,391 -101,594 z"
           id="path3439"
           inkscape:connector-curvature="0"
           style="fill:url(#id11)" /><path
           class="fil2"
           d="m 16248,11019 c -38,0 -391,-79 -403,-87 -32,0 -216,-66 -251,-79 -81,-31 -158,-62 -238,-93 -76,-30 -160,-64 -233,-98 -76,-36 -154,-66 -231,-100 -38,-17 -77,-34 -115,-50 -39,-17 -79,-30 -117,-48 -35,-17 -79,-33 -117,-49 -40,-17 -79,-31 -118,-47 -118,-47 -368,-137 -523,-136 -4,2 -7,3 -7,9 l 0,5 c 0,7 5,9 9,12 179,-2 550,141 684,203 102,47 209,85 309,134 100,49 209,88 312,134 197,87 432,173 654,234 227,63 480,118 770,115 294,-3 516,-65 744,-132 48,-14 115,-39 161,-58 52,-22 106,-40 155,-63 101,-47 203,-88 301,-139 193,-99 383,-200 575,-298 93,-48 195,-101 296,-141 77,-31 241,-98 341,-99 3,-2 12,-9 12,-12 0,-9 -2,-11 -7,-14 -177,2 -500,166 -630,233 -190,97 -374,200 -567,294 -194,95 -387,185 -604,258 -195,65 -463,140 -720,142 l -110,1 c -55,1 -309,-16 -330,-30 z"
           id="path3441"
           inkscape:connector-curvature="0"
           style="fill:#373435" /><path
           class="fil4"
           d="m 15932,8439 c 430,162 848,159 1255,0 -185,150 -380,306 -613,306 -233,0 -431,-164 -642,-306 z"
           id="path3443"
           inkscape:connector-curvature="0"
           style="fill:url(#id10)" /><path
           class="fil5"
           d="m 15181,9514 c 667,575 2405,497 2714,-37 35,135 52,278 34,439 -521,551 -2255,475 -2758,-10 -24,-134 -13,-263 10,-391 z"
           id="path3445"
           inkscape:connector-curvature="0"
           style="fill:url(#id9)" /></g><g
         id="g3447"><path
           class="fil2"
           d="m 15081,14821 c -156,-439 -321,-1042 -113,-1481 101,-212 1207,364 1315,427 l 79,486 c -82,96 -177,177 -280,251 -86,62 -908,583 -1002,318 z"
           id="path3449"
           inkscape:connector-curvature="0"
           style="fill:#373435" /><path
           class="fil2"
           d="m 18029,14821 c 156,-439 321,-1042 113,-1481 -101,-212 -1207,364 -1315,427 l -79,486 c 82,96 177,177 280,251 86,62 908,583 1002,318 z"
           id="path3451"
           inkscape:connector-curvature="0"
           style="fill:#373435" /><path
           class="fil6"
           style="fill:#727376"
           d="m 15129,13400 c 436,101 824,240 1163,419 20,123 42,255 65,396 -321,303 -694,503 -1118,601 -74,-121 267,-352 1022,-691 -693,138 -1061,147 -1103,27 -60,-219 285,-276 1035,-170 -851,-194 -1207,-387 -1065,-581 z"
           id="path3453"
           mask="url(#id0)"
           inkscape:connector-curvature="0" /><path
           class="fil6"
           style="fill:#727376"
           d="m 17981,13400 c -436,101 -824,240 -1163,419 -20,123 -42,255 -65,396 321,303 694,503 1118,601 74,-121 -267,-352 -1022,-691 693,138 1061,147 1103,27 60,-219 -285,-276 -1035,-170 851,-194 1207,-387 1065,-581 z"
           id="path3455"
           mask="url(#id2)"
           inkscape:connector-curvature="0" /><rect
           class="fil7"
           x="16262"
           y="13729"
           width="587"
           height="524"
           rx="25"
           ry="25"
           id="rect3457"
           style="fill:url(#linearGradient3473)" /><rect
           class="fil7"
           x="16262"
           y="13729"
           width="587"
           height="524"
           rx="25"
           ry="25"
           id="rect3459"
           style="fill:url(#linearGradient3475)" /><path
           class="fil2"
           style="fill:#373435"
           d="m 15206,14659 -97,-1128 c 744,187 1122,324 1132,410 55,111 -203,116 -845,83 -90,-11 -132,152 -43,150 703,-81 981,-105 909,-23 -254,247 -604,457 -1056,507 z"
           id="path3461"
           mask="url(#id4)"
           inkscape:connector-curvature="0" /><path
           class="fil2"
           style="fill:#373435"
           d="m 17904,14659 97,-1128 c -744,187 -1122,324 -1132,410 -55,111 203,116 845,83 90,-11 132,152 43,150 -703,-81 -981,-105 -909,-23 254,247 604,457 1056,507 z"
           id="path3463"
           mask="url(#id6)"
           inkscape:connector-curvature="0" /></g><path
         class="fil1"
         d="m 12185,9686 -245,503 -293,-143 52,-107 -638,-311 -52,107 -293,-143 283,-580 857,-133 -347,-169 -49,99 -293,-143 241,-494 293,143 -52,107 947,462 -197,403 -992,155 431,210 53,-108 293,143 z m 1534,-1932 -951,887 -222,-238 77,-72 -484,-519 -79,73 -223,-239 952,-888 297,319 -261,244 -75,-80 -226,211 143,153 197,-184 189,203 -197,184 152,163 226,-211 -75,-80 261,-244 297,319 z m 933,-475 -400,154 -734,-841 -88,34 -117,-305 659,-253 117,305 -95,36 360,490 -20,-620 -94,36 -117,-305 554,-213 117,305 -94,36 403,473 -58,-606 -91,35 -117,-305 513,-197 117,305 -88,34 13,1117 -395,152 -360,-424 16,556 z m 2584,-364 -743,-39 17,-326 110,6 11,-216 -317,-511 -93,-5 17,-326 711,37 -17,326 -81,-4 130,285 190,-269 -83,-4 17,-326 523,27 -17,326 -85,-4 -368,475 -11,216 108,6 -17,326 z m 1169,-389 c -54,141 -77,242 -69,302 7,60 38,101 95,122 56,21 106,13 152,-24 46,-39 97,-129 152,-273 54,-140 77,-240 69,-301 -7,-60 -39,-101 -96,-123 -55,-21 -105,-13 -151,25 -46,38 -97,128 -152,272 z m -552,-212 c 41,-106 106,-199 196,-278 89,-79 201,-132 335,-158 48,-9 94,-13 140,-11 46,2 94,8 145,18 50,10 102,26 154,46 228,88 379,222 452,404 37,90 57,179 59,268 2,89 -13,176 -46,262 -68,177 -192,307 -371,388 -180,81 -380,80 -600,-5 -213,-82 -362,-209 -447,-383 -86,-173 -92,-357 -17,-551 z m 2516,917 -167,199 45,38 c 59,49 101,81 125,95 25,15 53,22 82,18 29,-2 54,-17 77,-44 23,-27 33,-55 31,-84 -1,-30 -13,-56 -34,-80 -20,-23 -61,-60 -122,-111 l -37,-31 z m -605,881 -567,-476 210,-250 85,71 456,-544 -85,-71 210,-250 567,476 c 51,43 98,83 139,121 42,38 77,72 105,102 28,29 53,57 75,85 60,77 91,160 93,251 2,92 -28,174 -88,246 -45,54 -100,91 -165,112 -64,20 -128,21 -191,3 l -56,360 75,63 -210,250 -376,-315 130,-617 -128,-108 -148,176 79,66 -210,250 z m 1445,2092 -331,-623 288,-153 31,58 202,-446 447,155 -52,-98 288,-153 315,592 -288,153 -50,-93 -359,-124 -235,519 32,60 -288,153 z m -398,-748 -347,-652 288,-153 49,92 627,-333 -50,-94 288,-153 348,655 -288,153 -51,-95 -627,333 51,95 -288,153 z"
         id="path3465"
         inkscape:connector-curvature="0"
         style="fill:#373435;fill-rule:nonzero" /><path
         class="fil1"
         d="m 12799,15802 132,351 c -131,70 -266,94 -407,71 -142,-24 -274,-109 -397,-255 -168,-200 -240,-392 -216,-576 23,-184 110,-339 260,-465 151,-127 319,-187 504,-181 185,6 341,84 467,235 103,123 157,248 160,376 l 70,-59 210,251 -381,320 -219,-260 c 36,-53 55,-107 55,-162 0,-55 -17,-103 -52,-144 -95,-113 -240,-88 -434,75 -195,164 -243,304 -145,421 86,103 217,103 391,2 z m 1193,710 c -73,132 -110,229 -110,290 -2,60 24,105 77,134 52,29 103,28 154,-3 51,-32 114,-115 188,-250 72,-131 109,-227 110,-288 1,-60 -25,-105 -78,-135 -51,-29 -103,-27 -153,4 -51,31 -113,114 -188,249 z m -518,-287 c 55,-99 133,-182 233,-248 99,-66 217,-103 353,-110 48,-2 95,1 140,9 45,8 92,21 141,38 49,17 97,40 146,67 214,118 344,273 392,463 24,94 31,185 21,274 -10,88 -38,173 -82,253 -92,166 -233,277 -422,333 -189,56 -387,26 -593,-88 -199,-111 -329,-258 -389,-442 -61,-184 -41,-366 60,-548 z m 2509,1576 -820,-115 45,-323 142,20 99,-703 -146,-21 45,-323 1329,187 -62,444 -359,-50 17,-121 -302,-42 -29,208 233,33 -39,274 -233,-33 -31,221 156,22 -45,323 z m 1897,-115 -815,144 -57,-321 141,-25 -123,-699 -146,26 -57,-321 1321,-233 78,442 -357,63 -21,-121 -300,53 36,206 231,-41 48,273 -231,41 39,220 155,-27 57,321 z m 2239,-964 -1126,650 -163,-282 91,-53 -355,-615 -93,54 -163,-283 1128,-651 218,378 -310,179 -55,-95 -268,155 105,181 233,-135 139,240 -233,135 112,193 268,-155 -55,-95 310,-179 218,378 z m 1378,-1433 -764,1052 -264,-192 62,-85 -575,-417 -63,87 -264,-192 765,-1053 353,256 -210,289 -89,-64 -182,250 169,123 158,-218 224,163 -158,218 181,131 182,-250 -89,-64 210,-289 353,256 z"
         id="path3467"
         inkscape:connector-curvature="0"
         style="fill:#373435;fill-rule:nonzero" /></g></g></svg>