<?xml version="1.0" encoding="UTF-8" standalone="no"?>
<!-- Created with Inkscape (http://www.inkscape.org/) -->

<svg
   xmlns:dc="http://purl.org/dc/elements/1.1/"
   xmlns:cc="http://creativecommons.org/ns#"
   xmlns:rdf="http://www.w3.org/1999/02/22-rdf-syntax-ns#"
   xmlns:svg="http://www.w3.org/2000/svg"
   xmlns="http://www.w3.org/2000/svg"
   xmlns:sodipodi="http://sodipodi.sourceforge.net/DTD/sodipodi-0.dtd"
   xmlns:inkscape="http://www.inkscape.org/namespaces/inkscape"
   width="800"
   height="800"
   id="svg2"
   version="1.1"
   inkscape:version="0.48.4 r9939"
   sodipodi:docname="mad_robots.svg">
  <defs
     id="defs4" />
  <sodipodi:namedview
     id="base"
     pagecolor="#ffffff"
     bordercolor="#666666"
     borderopacity="1.0"
     inkscape:pageopacity="0.0"
     inkscape:pageshadow="2"
     inkscape:zoom="0.7"
     inkscape:cx="346.24497"
     inkscape:cy="372.80096"
     inkscape:document-units="px"
     inkscape:current-layer="layer1"
     showgrid="false"
     inkscape:window-width="1215"
     inkscape:window-height="1000"
     inkscape:window-x="65"
     inkscape:window-y="24"
     inkscape:window-maximized="1" />
  <metadata
     id="metadata7">
    <rdf:RDF>
      <cc:Work
         rdf:about="">
        <dc:format>image/svg+xml</dc:format>
        <dc:type
           rdf:resource="http://purl.org/dc/dcmitype/StillImage" />
        <dc:title />
      </cc:Work>
    </rdf:RDF>
  </metadata>
  <g
     inkscape:label="Layer 1"
     inkscape:groupmode="layer"
     id="layer1"
     transform="translate(0,-252.36218)">
    <path
       inkscape:connector-curvature="0"
       d="m 225.7638,609.09931 0,-50.90972 -0.61973,-0.15533 -7.42964,19.4022 -5.7269,13.9689 -16.09876,0 -6.03703,-14.90041 -7.27574,-18.62624 -0.61852,0.15555 0,51.06505 -22.29059,0 0,-108.02816 20.58707,0 12.53901,30.11158 10.68025,27.00686 0.77364,0 10.37187,-27.1624 12.38376,-29.95604 21.052,0 0,108.02816 -22.29069,0 z m 88.34416,-22.04041 -25.54042,0 c -0.92856,3.62121 -1.88355,7.29533 -2.8641,11.02005 -0.98024,3.72504 -1.98591,7.39916 -3.0177,11.02036 l -23.6832,0 31.11241,-108.02816 22.29069,0 31.11373,108.02816 -24.14814,0 -5.26327,-22.04041 z m -17.49105,-35.54289 -3.0958,15.52049 15.4787,0 -2.94123,-15.36649 -4.33319,-21.574 -0.77376,0 -4.33472,21.42 z m 105.52791,-5.58852 c 0,-3.1044 -0.15491,-6.10508 -0.46494,-9.00224 -0.31003,-2.89717 -0.95532,-5.45837 -1.93555,-7.68331 -0.98022,-2.22514 -2.4256,-3.98377 -4.33351,-5.27632 -1.90878,-1.29243 -4.46439,-1.94078 -7.66244,-1.94078 l -9.28808,0 0,66.276 9.4432,0 c 5.67534,0 9.4681,-1.44897 11.37722,-4.34612 1.90911,-2.89717 2.8641,-6.88094 2.8641,-11.95145 l 0,-26.07578 z m -10.37175,-44.85634 c 7.22395,0 13.38944,1.3471 18.49792,4.03559 5.10848,2.68882 8.81656,7.1532 11.22231,13.3487 1.41094,3.63463 2.2956,8.09769 2.55408,13.42582 0.25715,5.32802 0.38681,11.2527 0.38681,17.77095 0,9.41675 -0.0517,17.4108 -0.1549,23.98088 -0.10191,6.57007 -1.04396,12.17981 -2.78599,16.8412 -1.35278,3.61582 -3.06969,6.62309 -5.18527,9.00225 -2.11438,2.37915 -4.56763,4.26791 -7.35253,5.66419 -2.78731,1.39605 -5.80653,2.40698 -9.05625,3.02718 -3.24941,0.61933 -6.63165,0.9314 -10.13853,0.9314 l -33.58979,0 0,-108.02816 35.60214,0 z m -185.82389,250.56024 -14.3949,-42.68289 -9.4431,0 0,42.68289 -22.44429,0 0,-108.02783 35.60205,0 c 4.53997,0 8.84957,0.6202 12.92461,1.86225 4.07625,1.24227 7.63732,3.15622 10.68146,5.74239 3.04457,2.58784 5.44375,5.87287 7.19761,9.85665 1.75399,3.98389 2.63088,8.77004 2.63088,14.35689 0,6.93275 -1.34061,12.88262 -4.02469,17.84928 -2.68244,4.96665 -6.60389,8.84703 -11.76393,11.64189 l 17.33734,46.71848 -24.30304,0 z m 1.2387,-76.05399 c 0,-4.13944 -1.16059,-7.0883 -3.48274,-8.84704 -2.32238,-1.75862 -5.28841,-2.63953 -8.90136,-2.63953 l -12.6926,0 0,24.36874 12.07396,0 c 3.61143,0 6.68233,-0.95626 9.20997,-2.87185 2.52895,-1.91395 3.79277,-5.25102 3.79277,-10.01032 z m 106.14665,42.06247 c 0,5.38137 -0.8521,10.218 -2.55441,14.51244 -1.7022,4.29464 -4.07625,7.96766 -7.12049,11.02003 -3.04446,3.05271 -6.65578,5.38137 -10.83537,6.98479 -4.17993,1.60308 -8.79791,2.40544 -13.85472,2.40544 -6.19074,0 -11.48044,-0.98288 -15.86552,-2.94897 -4.38639,-1.96598 -7.97225,-4.63048 -10.75836,-7.99407 -2.78599,-3.36214 -4.82478,-7.26858 -6.11382,-11.71735 -1.29059,-4.44998 -1.93555,-9.10609 -1.93555,-13.96924 l 0,-38.4934 c 0,-4.0356 0.61984,-8.09637 1.85722,-12.18377 1.23858,-4.08729 3.25093,-7.78682 6.03703,-11.09836 2.78599,-3.31023 6.37219,-6.02687 10.75858,-8.14818 4.38639,-2.12164 9.72646,-3.18152 16.02042,-3.18152 5.88333,0 10.99061,1.00817 15.325,3.02597 4.33472,2.0178 7.89447,4.65612 10.68058,7.91586 2.78731,3.25984 4.87645,6.95926 6.26994,11.09835 1.39261,4.13943 2.08947,8.32903 2.08947,12.57165 l 0,40.20033 z m -22.59942,-41.13141 c 0,-1.03491 -0.18167,-2.22515 -0.54205,-3.56939 -0.36171,-1.34556 -1.00667,-2.63931 -1.93556,-3.88158 -0.92855,-1.2404 -2.14081,-2.30182 -3.63786,-3.18119 -1.4954,-0.87937 -3.37939,-1.31928 -5.6501,-1.31928 -2.26927,0 -4.17838,0.38787 -5.727,1.16374 -1.54708,0.77706 -2.8109,1.76016 -3.79266,2.94919 -0.98056,1.19024 -1.70231,2.48387 -2.16605,3.87993 -0.46515,1.3976 -0.69685,2.71664 -0.69685,3.95858 l 0,40.04502 c 0,4.1391 0.95379,7.55283 2.8629,10.24419 1.91032,2.69013 5.08325,4.03558 9.51966,4.03558 3.19937,0 5.96024,-1.03491 8.28262,-3.10441 2.32116,-2.0696 3.48295,-4.91495 3.48295,-8.53738 l 0,-42.683 z m 109.55095,42.21803 c 0,5.27763 -0.77375,9.95861 -2.32084,14.04634 -1.54862,4.08729 -3.71619,7.52766 -6.50196,10.32251 -2.786,2.79355 -6.1406,4.91496 -10.06173,6.36304 -3.92145,1.44897 -8.25617,2.17301 -13.00262,2.17301 l -36.37579,0 0,-108.02783 34.82839,0 c 10.52533,0 18.52282,2.6898 23.99289,8.07117 5.46886,5.37984 8.20308,12.83049 8.20308,22.35107 0,4.03427 -0.98023,8.04466 -2.94101,12.02811 -1.96067,3.98389 -5.2104,6.90777 -9.75158,8.77003 l 0,0.77574 c 2.47717,0.82756 4.59274,2.06961 6.34705,3.72472 1.75389,1.65643 3.19938,3.5442 4.33319,5.66551 1.13536,2.1213 1.96067,4.37165 2.47717,6.75213 0.51562,2.37915 0.77376,4.70759 0.77376,6.98445 z m -23.21925,-43.92494 c 0,-3.62242 -0.87688,-6.31245 -2.6312,-8.07118 -1.75387,-1.75863 -4.74644,-2.63954 -8.97793,-2.63954 l -10.99027,0 0,21.88607 11.14551,0 c 4.12792,0 7.06882,-1.03458 8.82269,-3.10418 1.75432,-2.0695 2.6312,-4.76085 2.6312,-8.07117 z m 1.39349,42.683 c 0,-3.62121 -0.90332,-6.51826 -2.70886,-8.69138 -1.80588,-2.17345 -4.72166,-3.25984 -8.74503,-3.25984 l -12.539,0 0,24.83373 12.3841,0 c 4.43674,0 7.48087,-1.24194 9.13283,-3.72461 1.65065,-2.48432 2.47596,-5.53669 2.47596,-9.1579 z m 106.14677,0.15532 c 0,5.38137 -0.85176,10.218 -2.55441,14.51243 -1.70232,4.29465 -4.07636,7.96767 -7.1205,11.02004 -3.04446,3.05271 -6.65589,5.38137 -10.83537,6.98479 -4.17959,1.60308 -8.7979,2.40544 -13.85449,2.40544 -6.19062,0 -11.48066,-0.98288 -15.86552,-2.94897 -4.38628,-1.96598 -7.97259,-4.63048 -10.75857,-7.99407 -2.78611,-3.36214 -4.82489,-7.26859 -6.11384,-11.71735 -1.29025,-4.44997 -1.93555,-9.10609 -1.93555,-13.96923 l 0,-38.49342 c 0,-4.03559 0.62007,-8.09636 1.85744,-12.18376 1.2387,-4.08729 3.25104,-7.78682 6.0367,-11.09836 2.78611,-3.31023 6.3723,-6.02687 10.75869,-8.14818 4.38629,-2.12164 9.72647,-3.18152 16.02065,-3.18152 5.88312,0 10.99028,1.00817 15.32511,3.02597 4.33439,2.01779 7.89415,4.65612 10.68025,7.91586 2.7873,3.25984 4.87645,6.95926 6.27027,11.09835 1.39217,4.13943 2.08914,8.32903 2.08914,12.57164 l 0,40.20034 z m -22.59952,-41.13141 c 0,-1.03491 -0.18157,-2.22515 -0.54173,-3.56939 -0.36159,-1.34556 -1.00689,-2.63931 -1.93545,-3.88158 -0.92898,-1.2404 -2.14113,-2.30182 -3.63786,-3.18119 -1.49585,-0.87937 -3.37973,-1.31928 -5.65021,-1.31928 -2.26949,0 -4.17828,0.38787 -5.727,1.16374 -1.54742,0.77706 -2.81123,1.76016 -3.79299,2.94919 -0.98023,1.19024 -1.70231,2.48387 -2.16593,3.87993 -0.46494,1.3976 -0.69696,2.71664 -0.69696,3.95858 l 0,40.04502 c 0,4.1391 0.95378,7.55283 2.86289,10.24419 1.91032,2.69013 5.08324,4.03558 9.51999,4.03558 3.19937,0 5.96024,-1.03491 8.28228,-3.10441 2.32117,-2.0696 3.48297,-4.91495 3.48297,-8.53738 l 0,-42.683 z m 78.12883,-12.41763 0,87.54056 -22.29069,0 0,-87.54056 -23.06435,0 0,-20.48727 68.41939,0 0,20.48727 -23.06435,0 z m 104.75283,55.56684 c 0,10.34802 -3.17292,18.39269 -9.51999,24.1352 -6.34706,5.74372 -15.35023,8.61438 -27.0107,8.61438 -4.54152,0 -8.64301,-0.46499 -12.30731,-1.39606 -3.663,-0.9314 -6.9656,-2.19985 -9.90681,-3.80326 -2.9409,-1.60341 -5.59821,-3.51891 -7.97106,-5.74251 -2.37393,-2.22482 -4.48951,-4.6823 -6.34705,-7.37232 l 17.64748,-14.27988 c 2.78599,3.93173 5.70056,6.82923 8.74469,8.69137 3.04447,1.86247 6.52709,2.79364 10.44854,2.79364 4.7481,0 8.02427,-1.03491 9.83004,-3.10451 1.80553,-2.06962 2.70898,-4.6041 2.70898,-7.60465 0,-2.06961 -0.49007,-3.85509 -1.47028,-5.35497 -0.98056,-1.50079 -2.32239,-2.82006 -4.0247,-3.95826 -1.70385,-1.13843 -3.68942,-2.12164 -5.96024,-2.9492 -2.27081,-0.82756 -4.74677,-1.60341 -7.42931,-2.32712 -4.95357,-1.55281 -9.18473,-3.31154 -12.69414,-5.27753 -3.50819,-1.96608 -6.37229,-4.19124 -8.5911,-6.67391 -2.21793,-2.48398 -3.84334,-5.32933 -4.87525,-8.53737 -1.03211,-3.20803 -1.54862,-6.82913 -1.54862,-10.86471 0,-4.65579 0.82653,-8.92525 2.47729,-12.8053 1.65064,-3.88025 3.97302,-7.24362 6.96559,-10.08896 2.9929,-2.84535 6.5791,-5.04366 10.75858,-6.59658 4.17839,-1.5516 8.79669,-2.32745 13.85318,-2.32745 8.1526,0 14.83493,1.26724 20.04664,3.80172 5.21172,2.53612 9.62323,6.28724 13.23433,11.25402 l -16.09843,15.20962 c -5.16004,-6.10353 -10.88705,-9.15624 -17.18254,-9.15624 -3.30129,0 -6.0106,0.87926 -8.12618,2.638 -2.11557,1.75895 -3.17292,4.08761 -3.17292,6.98478 0,1.55126 0.51561,2.94885 1.5474,4.19079 1.03223,1.24205 2.42572,2.37927 4.1796,3.41385 1.7542,1.03491 3.81822,2.0178 6.19226,2.9492 2.37273,0.93106 4.90158,1.81164 7.58412,2.63931 5.36683,1.65512 9.85525,3.5441 13.46788,5.66541 3.61132,2.12163 6.50066,4.55226 8.6679,7.29411 2.16748,2.74314 3.68943,5.76902 4.56676,9.08089 0.87688,3.31022 1.31538,6.93275 1.31538,10.8645 z m -438.94409,174.50613 -14.3948,-42.68289 -9.4432,0 0,42.68289 -22.44428,0 0,-108.02816 35.60203,0 c 4.53998,0 8.85079,0.62174 12.92463,1.86258 4.07504,1.24073 7.63852,3.15742 10.68145,5.7424 3.04326,2.58629 5.44374,5.87287 7.19762,9.85642 1.75398,3.98378 2.63086,8.76992 2.63086,14.35711 0,6.93274 -1.34181,12.88382 -4.02435,17.84927 -2.68156,4.96545 -6.60422,8.84703 -11.76394,11.64189 l 17.33703,46.71849 -24.30305,0 z m 1.23869,-76.05433 c 0,-4.1391 -1.16025,-7.08797 -3.48262,-8.84702 -2.32238,-1.75863 -5.29136,-2.63921 -8.90114,-2.63921 l -12.69293,0 0,24.36874 12.07407,0 c 3.61132,0 6.68234,-0.95791 9.20997,-2.87186 2.52764,-1.91418 3.79265,-5.25102 3.79265,-10.01065 z m 107.54015,-31.97384 0,74.03665 c 0,5.37851 -0.85297,10.21899 -2.55407,14.51243 -1.70221,4.29311 -4.07626,7.96733 -7.12072,11.02004 -3.04424,3.05238 -6.65556,5.38115 -10.83515,6.98445 -4.17993,1.60341 -8.79791,2.40578 -13.85472,2.40578 -6.19194,0 -11.48165,-0.98442 -15.86672,-2.94897 -4.38388,-1.96477 -7.9726,-4.63204 -10.75749,-7.99407 -2.78445,-3.36083 -4.82598,-7.26892 -6.11503,-11.71768 -1.28905,-4.44876 -1.93401,-9.10576 -1.93401,-13.96891 l 0,-72.32972 22.28916,0 0,72.94992 c 0,4.13658 0.95652,7.5545 2.86442,10.24452 1.90747,2.68859 5.08293,4.03526 9.51967,4.03526 3.19937,0 5.96144,-1.11445 8.2813,-3.33674 2.32085,-2.22361 3.48274,-5.14882 3.48274,-8.76969 l 0,-75.12327 22.60062,0 z M 100,952.36218 l 600,0 0,-600.00002 -600,0 0,517.27724 23.52961,0 0,-492.6468 552.93553,0 0,551.77658 -552.93553,0 0,-34.60538 -23.52961,0 0,58.19838 z"
       style="fill:#3a9fdf;fill-opacity:1;fill-rule:nonzero;stroke:none"
       id="path2995" />
  </g>
</svg>
