<?xml version="1.0" encoding="UTF-8"?>
<!DOCTYPE svg PUBLIC "-//W3C//DTD SVG 1.1//EN" "http://www.w3.org/Graphics/SVG/1.1/DTD/svg11.dtd">
<!-- Creator: CorelDRAW X6 -->
<svg xmlns="http://www.w3.org/2000/svg" xml:space="preserve" width="14.0139in" height="3.04166in" version="1.1" style="shape-rendering:geometricPrecision; text-rendering:geometricPrecision; image-rendering:optimizeQuality; fill-rule:evenodd; clip-rule:evenodd"
viewBox="0 0 14014 3042"
 xmlns:xlink="http://www.w3.org/1999/xlink">
 <defs>
  <style type="text/css">
   <![CDATA[
    .fil1 {fill:#27735E;fill-rule:nonzero}
    .fil0 {fill:#D43D39;fill-rule:nonzero}
   ]]>
  </style>
 </defs>
 <g id="Layer_x0020_1">
  <metadata id="CorelCorpID_0Corel-Layer"/>
  <path class="fil0" d="M12978 2456l0 -197 1024 0 0 197 -1024 0zm1024 -1060l0 197 -71 0c64,36 94,117 94,194 0,209 -164,331 -352,331 -216,0 -351,-155 -351,-331 0,-108 52,-168 92,-194l-70 0 0 -197 658 0zm-326 525c60,0 165,-45 165,-164 0,-70 -33,-113 -73,-138 -26,-17 -55,-25 -84,-27 -30,-2 -59,4 -86,17 -45,21 -91,66 -91,150 0,113 95,162 169,162l1 0zm-698 -660l0 -197 418 0c-75,-70 -75,-164 -75,-191 0,-137 98,-323 347,-323 237,0 356,165 356,332 0,93 -45,164 -93,191l70 0 0 188 -1024 0zm693 -515c-84,0 -166,64 -166,161 0,104 84,163 166,163 91,0 169,-61 169,-160 0,-101 -82,-165 -168,-165l-1 0zm-11511 1072l252 503 252 -503 -504 0zm4547 -568l-503 252 503 252 0 -503zm5641 1204l-252 -503 -252 503 503 0z"/>
  <path class="fil1" d="M3335 2456l-360 0 -563 -1207 -563 1207 -360 0 923 -1979 923 1979zm5794 -2468l0 0c-175,192 -632,790 -232,1391 388,583 348,899 -175,1343l147 319c697,-533 825,-1129 372,-1767 -359,-506 36,-956 155,-1072l-267 -213zm-5416 0l0 0c-175,192 -632,790 -232,1391 388,583 347,899 -175,1343l147 319c697,-533 825,-1129 372,-1767 -359,-506 36,-956 155,-1072l-267 -213zm3250 921l0 -359 -1132 0 0 1906 1132 0 0 -359 -773 0 0 -1187 773 0zm-6603 -359l-360 0 0 1906 360 0 0 -1906zm435 953l667 -953 -421 0 -667 953 667 953 421 0 -667 -953zm9384 -953l-359 0 0 1906 359 0 0 -1906zm435 953l667 -953 -421 0 -667 953 667 953 421 0 -667 -953zm-2429 215c181,-120 284,-309 284,-523 0,-235 -105,-425 -294,-537 -126,-74 -280,-108 -485,-108l-450 0 0 1906 360 0 0 -1546 90 0c249,0 420,61 420,285 0,209 -206,300 -444,308 -8,0 -34,0 -52,0l0 0 667 953 421 0 -517 -738zm-2847 -1059c-126,-74 -280,-108 -485,-108l-450 0 0 1906 360 0 0 -1546 90 0c249,0 420,61 420,285 0,209 -206,300 -444,308 -7,0 -34,0 -52,0l0 0 239 341c118,-21 224,-59 313,-113 7,-4 13,-9 20,-13 181,-120 284,-309 284,-523 0,-235 -105,-425 -294,-537zm7200 -108l-441 765 -442 -765 -359 0 801 1387 801 -1387 -360 0z"/>
 </g>
</svg>
