<?xml version="1.0" encoding="UTF-8" standalone="no"?>
<!-- Created with Inkscape (http://www.inkscape.org/) -->

<svg
   xmlns:dc="http://purl.org/dc/elements/1.1/"
   xmlns:cc="http://creativecommons.org/ns#"
   xmlns:rdf="http://www.w3.org/1999/02/22-rdf-syntax-ns#"
   xmlns:svg="http://www.w3.org/2000/svg"
   xmlns="http://www.w3.org/2000/svg"
   xmlns:sodipodi="http://sodipodi.sourceforge.net/DTD/sodipodi-0.dtd"
   xmlns:inkscape="http://www.inkscape.org/namespaces/inkscape"
   width="390"
   height="175"
   id="svg2"
   version="1.1"
   inkscape:version="0.48.4 r9939"
   sodipodi:docname="RCC.svg">
  <defs
     id="defs4" />
  <sodipodi:namedview
     id="base"
     pagecolor="#ffffff"
     bordercolor="#666666"
     borderopacity="1.0"
     inkscape:pageopacity="0.0"
     inkscape:pageshadow="2"
     inkscape:zoom="1.4142136"
     inkscape:cx="169.31489"
     inkscape:cy="84.994307"
     inkscape:document-units="px"
     inkscape:current-layer="layer1"
     showgrid="false"
     inkscape:window-width="1920"
     inkscape:window-height="1005"
     inkscape:window-x="-9"
     inkscape:window-y="-9"
     inkscape:window-maximized="1" />
  <metadata
     id="metadata7">
    <rdf:RDF>
      <cc:Work
         rdf:about="">
        <dc:format>image/svg+xml</dc:format>
        <dc:type
           rdf:resource="http://purl.org/dc/dcmitype/StillImage" />
        <dc:title></dc:title>
      </cc:Work>
    </rdf:RDF>
  </metadata>
  <g
     inkscape:label="Layer 1"
     inkscape:groupmode="layer"
     id="layer1"
     transform="translate(0,-877.36218)">
    <g
       id="g4606"
       transform="matrix(0.98734178,0,0,0.95628416,1.2600013e-5,46.004916)">
      <g
         transform="matrix(3.2535379,0,0,2.8784335,-720.08379,-394.21986)"
         id="g3194">
        <path
           inkscape:connector-curvature="0"
           style="fill:#fbc71c;fill-opacity:1;fill-rule:evenodd;stroke:none"
           d="m 244.85272,465.95661 -3.15034,0 0,-8.29145 c 3.79074,0 7.77772,-0.47721 7.77772,4.44994 0,3.04219 -2.20007,3.84151 -4.62738,3.84151 z m 25.07875,35.34901 0,-0.0716 c -5.37107,-1.5032 -10.9074,-5.47594 -14.13004,-10.35537 -0.37184,-0.57264 -0.7127,-1.09757 -1.07421,-1.69408 -2.18974,-3.65062 -3.5635,-8.16021 -4.14192,-12.75332 -0.88829,-6.9672 0.0413,-14.3281 2.4583,-20.00685 0.83664,-1.96847 1.82822,-3.76992 2.9954,-5.42821 1.04323,-1.47934 1.4977,-1.80146 2.44797,-3.01833 0.72302,-0.93055 3.50152,-3.20921 4.38981,-3.7222 l 0,-0.11931 c -0.97092,-0.53686 -1.50803,-1.1453 -3.71843,-2.29059 -1.14652,-0.59651 -3.09869,-1.24074 -4.36916,-1.61057 -0.80566,-0.2386 -1.59066,-0.38176 -2.41698,-0.54879 -2.61323,-0.50106 -5.35041,-0.70387 -8.04627,-0.70387 -7.6641,0 -15.33853,0 -23.00263,0 l 0,62.32306 19.6767,0 c 1.23948,0.0119 0.9606,0.0716 0.9606,-1.40776 l 0,-15.15128 1.40474,0 c 0.10328,0.52493 0.58875,1.55092 0.81599,2.07585 l 4.16257,10.34343 c 0.13428,0.33405 0.30987,0.66809 0.44415,1.01406 0.28921,0.76353 0.99158,2.57692 1.31178,3.1257 z"
           id="path3107" />
        <path
           inkscape:connector-curvature="0"
           style="fill:#713c6b;fill-opacity:1;fill-rule:evenodd;stroke:none"
           d="m 296.55905,447.49614 0,0.14316 c -3.23221,3.83213 -7.1835,12.45464 -8.59299,19.74965 -0.11582,0.53576 -0.12243,1.36275 -0.15565,1.82002 0.0103,0.77546 -0.093,1.09757 -0.0826,1.82531 0,1.25267 0.0826,2.43375 0.17559,3.56711 4.06052,10.01861 4.95775,12.5269 8.45943,20.09036 l 0,0.0835 c 0.21691,0.14317 0.42349,0.38177 0.6404,0.58458 0.23756,0.21474 0.44414,0.41755 0.68171,0.6323 0.23757,0.22666 0.46481,0.39369 0.7127,0.59651 8.02561,6.53771 18.964,7.62336 27.74363,3.66255 3.11935,-1.39583 4.86495,-2.64849 7.58147,-5.07031 3.89402,-3.47167 7.2716,-10.12869 8.27351,-15.49726 0.26855,-1.43161 0.65073,-3.18535 0.65073,-4.80784 -6.54858,0 -12.81826,-0.10739 -19.32552,-0.10739 -0.11362,1.51513 -1.62165,4.17555 -2.9954,5.23733 -0.78501,0.60844 -1.47705,1.08565 -2.55126,1.39583 -3.15034,0.90669 -6.15607,-0.41755 -8.10825,-3.28079 -0.23756,-0.34597 -0.51645,-0.91862 -0.69204,-1.32424 -0.21691,-0.50107 -0.38217,-0.97827 -0.55776,-1.58671 -1.53902,-5.36857 0.32019,-12.88456 5.78422,-14.10143 4.37949,-0.97827 8.24253,2.26673 9.12049,6.59737 6.56923,0 12.89056,0.0954 19.40815,0.0954 -0.0103,-0.65616 -0.1756,-1.7418 -0.26856,-2.40989 -0.11361,-0.79932 -0.24789,-1.63443 -0.41315,-2.36217 -0.34087,-1.58665 -0.70239,-2.82738 -1.1362,-4.22321 -2.29303,-7.32511 -8.26318,-13.86282 -14.5432,-16.54711 -5.32975,-2.26672 -10.93839,-3.13762 -16.60899,-1.83724 -2.71652,0.62037 -5.85653,1.71794 -8.04628,3.13763 -1.80757,1.15722 -2.76816,1.71794 -4.47244,3.31658 -0.26856,0.26246 -0.37184,0.38176 -0.68171,0.62037 z"
           id="path3109"
           sodipodi:nodetypes="ccccccccccccsccccccsccccccccccccc" />
        <path
           inkscape:connector-curvature="0"
           style="fill:#dd355d;fill-opacity:1;fill-rule:evenodd;stroke:none"
           d="m 262.86506,444.13247 0,0.1193 c -9.61537,17.06667 -9.1696,35.12518 7.05471,56.97837 l 0,0.0716 c 0.36151,0.0119 0.58875,0.1193 0.88829,0.20282 0.28921,0.0835 0.55776,0.14317 0.86763,0.21475 1.78691,0.40562 3.89402,0.69195 5.78423,0.69195 4.94758,0 10.48391,-1.44355 14.52254,-4.13976 1.76625,-1.18109 2.17941,-1.43162 3.83205,-2.94675 0.22723,-0.21474 0.3925,-0.40563 0.59908,-0.58458 l 0,-0.0835 c -0.63007,-0.39369 -2.55126,-2.9706 -3.15034,-3.82957 -3.07803,-4.39029 -4.84429,-10.30764 -5.30909,-16.26079 l -2.18975,-0.0358 c -0.031,1.5032 -1.68362,4.30678 -2.95408,5.27312 -3.31561,2.54112 -6.7345,2.27866 -9.79187,-0.65616 l -0.87797,-1.19301 c -1.02256,-1.75373 -1.77658,-3.84151 -1.76625,-6.75246 0.0103,-7.42055 4.68936,-11.54838 9.56463,-10.24799 1.1775,0.32211 1.83856,0.71581 2.67521,1.36003 0.20657,0.15509 0.30986,0.22667 0.50612,0.42949 0.20657,0.21474 0.33052,0.28632 0.52677,0.50106 0.61974,0.66809 1.58034,2.48147 1.86955,3.40009 0.0723,0.25054 0.1446,0.57265 0.24789,0.82318 l 2.18975,-0.0477 0.0516,0 c 0.5371,-4.64083 1.28079,-7.8739 2.93343,-11.56031 0.76434,-1.71794 1.61132,-3.18535 2.53059,-4.54539 0.57843,-0.85897 2.49962,-3.30465 3.14001,-3.71027 l 0,-0.14316 c -0.5371,-0.41757 -0.98125,-0.89477 -1.52868,-1.37198 -0.8883,-0.76353 -2.37567,-1.89689 -3.36725,-2.45761 -0.6404,-0.36983 -1.18783,-0.72774 -1.8902,-1.06178 -0.67138,-0.32212 -1.23948,-0.57265 -1.93152,-0.89476 -0.68171,-0.31019 -1.45639,-0.53686 -2.1381,-0.76353 -2.70619,-0.91862 -7.07535,-1.5032 -9.96746,-1.13337 -2.4583,0.29826 -2.14843,0.11931 -4.90626,0.78739 -1.14652,0.28633 -3.16067,1.01407 -4.21423,1.5032 -1.25871,0.68646 -2.60206,1.32239 -3.80106,2.06392 z"
           id="path3111"
           sodipodi:nodetypes="ccccccsccccccccccccccccccccccccccccccccc" />
        <path
           inkscape:connector-curvature="0"
           style="fill:#db3229;fill-opacity:1;fill-rule:evenodd;stroke:none"
           d="m 269.93147,501.23404 0.86764,-0.0358 c 0,-0.46527 0.0516,-1.5867 -0.031,-1.96847 l -3.97666,-8.92374 c -0.785,-1.70602 -1.51836,-3.42396 -2.29303,-5.12997 l -2.25172,-5.08224 1.66297,-1.41969 c 0.32019,-0.31018 0.55776,-0.50106 0.79533,-0.79931 1.47704,-1.87304 1.73526,-1.82532 3.07803,-4.6289 2.88179,-6.00086 2.8508,-15.712 0.37184,-21.89181 -0.55776,-1.3839 -1.55967,-3.17342 -2.27237,-4.04432 -0.63006,-0.76353 -2.22073,-2.66043 -3.00573,-3.05412 -0.88829,0.51299 -3.66679,2.79165 -4.38981,3.7222 -0.95027,1.21688 -1.40474,1.53899 -2.44797,3.01833 -1.16718,1.65829 -2.15876,3.45974 -2.9954,5.42821 -2.41698,5.67875 -3.34659,13.03965 -2.4583,20.00685 0.57842,4.59311 1.95218,9.1027 4.14192,12.75333 0.36151,0.5965 0.70237,1.12143 1.07421,1.69408 3.22264,4.87942 8.75897,8.85216 14.13004,10.35536 z"
           id="path3113" />
        <path
           inkscape:connector-curvature="0"
           style="fill:#6d2948;fill-opacity:1;fill-rule:evenodd;stroke:none"
           d="m 287.96673,467.42793 17.06347,-0.0119 c 0.15493,-0.94254 -0.70237,-5.16581 -0.97093,-6.16794 -0.5371,-1.9804 -1.07421,-3.61483 -1.84888,-5.33277 -1.31178,-2.92289 -3.48087,-6.34684 -5.63962,-8.30338 -0.6404,0.40562 -2.56159,2.8513 -3.14001,3.71027 -0.91928,1.36004 -1.76626,2.82745 -2.5306,4.54539 -1.65264,3.68641 -2.39633,6.91948 -2.93343,11.56031 z"
           id="path3105" />
        <path
           inkscape:connector-curvature="0"
           style="fill:#6d2948;fill-opacity:1;fill-rule:evenodd;stroke:none"
           d="m 296.40319,494.67158 c 1.1052,-0.84704 1.80758,-1.95654 2.55126,-2.86323 1.16718,-1.40776 2.39632,-3.67449 3.27429,-5.4998 1.26013,-2.63656 2.96441,-8.85216 2.85079,-11.72733 l -17.13577,0 c 0.46481,5.95314 2.23106,11.87049 5.3091,16.26079 0.59908,0.85897 2.52027,3.43588 3.15033,3.82957 z"
           id="path3103" />
      </g>
    </g>
  </g>
</svg>
