<?xml version="1.0" encoding="UTF-8" standalone="no"?>
<!-- Created with Inkscape (http://www.inkscape.org/) -->
<svg id="svg2" xmlns:rdf="http://www.w3.org/1999/02/22-rdf-syntax-ns#" xmlns="http://www.w3.org/2000/svg" height="175.13365" width="518.94269" version="1.1" xmlns:cc="http://creativecommons.org/ns#" xmlns:xlink="http://www.w3.org/1999/xlink" xmlns:dc="http://purl.org/dc/elements/1.1/">
 <defs id="defs4"></defs>
 <metadata id="metadata7">
  <rdf:RDF>
   <cc:Work rdf:about="">
    <dc:format>image/svg+xml</dc:format>
    <dc:type rdf:resource="http://purl.org/dc/dcmitype/StillImage"/>
    <dc:title/>
   </cc:Work>
  </rdf:RDF>
 </metadata>
 <g id="layer1" transform="translate(-113.39271,-121.6818)">
  <g id="g2989" transform="matrix(2.6632465,0,0,4.8975473,112.36868,120.60196)">
   <path id="path2991" fill-rule="evenodd" fill="#cb2a1d" d="m58.879993,0.2204867c2.954624,0,5.362845,1.380943,5.362845,3.0752092,0,1.7000685-2.408221,3.0810115-5.362845,3.0810115-2.964743,0-5.372964-1.380943-5.372964-3.0810115,0-1.6942662,2.408221-3.0752092,5.372964-3.0752092z"/>
   <path id="path2993" fill-rule="evenodd" fill="#6c787f" d="m58.799045,10.565955c9.754307,0,18.031302,3.609019,20.996044,8.627992h-9.976915c-2.327273-2.071414-6.39494-3.446555-11.019129-3.446555-4.62419,0-8.691857,1.375141-11.029248,3.446555h-9.966797c2.964742-5.018973,11.241737-8.627992,20.996045-8.627992zm21.59304,9.834867c0.151779,0.377148,0.273202,0.760099,0.364269,1.148851h-9.187667c-0.161897-0.394555-0.374387-0.777505-0.63747-1.148851zm-34.372802,1.148851-9.177548,0c0.09107-0.388752,0.21249-0.771703,0.364269-1.148851h9.460868c-0.263083,0.371346-0.485692,0.754296-0.647589,1.148851zm34.919206,1.206875c0.01012,0.174068,0.02024,0.342335,0.02024,0.516403,0,0.214685-0.01012,0.423567-0.03036,0.638251h-9.056125c0.03036-0.208882,0.04047-0.423566,0.04047-0.638251,0-0.174068-0.01012-0.342335-0.03036-0.516403zm-35.212645,1.154654-9.066244,0c-0.02024-0.214684-0.03036-0.423566-0.03036-0.638251,0-0.174068,0.01012-0.342335,0.02024-0.516403h9.056125c-0.02024,0.174068-0.03036,0.342335-0.03036,0.516403,0,0.214685,0.02024,0.429369,0.05059,0.638251zm35.000154,1.206875c-0.101185,0.388752-0.232727,0.771703-0.384505,1.148851h-9.501343c0.273201-0.371346,0.505929-0.754296,0.677944-1.148851zm-33.968059,1.148851-9.501343,0c-0.161897-0.377148-0.293438-0.760099-0.394624-1.148851h9.207904c0.182134,0.394555,0.404743,0.777505,0.688063,1.148851zm32.956202,1.206875c-3.025454,4.955148-11.241738,8.506145-20.915096,8.506145-9.673359,0-17.899761-3.550997-20.925215-8.506145h10.037627c2.357628,2.001787,6.354466,3.324707,10.887588,3.324707s8.529959-1.32292,10.887587-3.324707z"/>
   <path id="path2995" fill-rule="evenodd" fill="#6c787f" d="m63.494064,7.4791409,0,11.7148061-9.23826,0,0-11.7148061c1.143399,0.7136806,2.792727,1.1662585,4.614071,1.1662585,1.831462,0,3.48079-0.4525779,4.624189-1.1662585zm0,12.9216811,0,1.148851-9.23826,0,0-1.148851zm0,2.355726,0,1.154654-9.23826,0,0-1.154654zm0,2.361529,0,1.148851-9.23826,0,0-1.148851zm0,2.355726,0,1.821916-9.23826,0,0-1.821916z"/>
   <path id="path2997" fill-rule="nonzero" fill="#141515" d="m85.04663,22.321377,0-0.400358,0.981502,0,0-3.214463-0.981502,0,0-0.400358,3.05581,0,0,0.400358-0.981502,0,0,2.303505,2.883795-1.943764,0-0.359741-0.981502,0,0-0.400358,3.05581,0,0,0.400358-0.981502,0,0,3.214463,0.981502,0,0,0.400358-3.05581,0,0-0.400358,0.981502,0,0-2.245482-2.883795,1.943764,0,0.301718,0.981502,0,0,0.400358zm14.135651-3.614821,0,3.214463,0.981499,0,0,0.400358-3.055807,0,0-0.400358,0.981502,0,0-1.549209-2.883794,0,0,1.549209,0.981501,0,0,0.400358-3.055809,0,0-0.400358,0.981501,0,0-3.214463-0.981501,0,0-0.400358,3.055809,0,0,0.400358-0.981501,0,0,1.19527,2.883794,0,0-1.19527-0.981502,0,0-0.400358,3.055807,0,0,0.400358zm5.828299-0.05802,0-1.80451-1.05233,0,0-0.400357,2.14514,0,0,2.204867,0.39462-0.261103c0.18214-0.12765,0.48569-0.191475,0.90055-0.191475,0.51605,0,1.05234,0.191475,1.59874,0.568623,0.55652,0.382951,0.83984,0.893552,0.83984,1.543407,0,0.655658-0.28332,1.172061-0.83984,1.549209-0.5464,0.382951-1.08269,0.568624-1.59874,0.568624-0.41486,0-0.71841-0.05802-0.90055-0.185673l-0.39462-0.266905v1.555011h0.9815v0.400358h-3.05581v-0.400358h0.9815v-1.555011l-0.39462,0.266905c-0.19226,0.12765-0.49581,0.185673-0.91068,0.185673-0.51604,0-1.05233-0.185673-1.59873-0.568624-0.55652-0.38295-0.83984-0.899353-0.83984-1.549209,0-0.649855,0.28332-1.166258,0.83984-1.543407,0.5464-0.377148,1.08269-0.568623,1.59873-0.568623,0.41487,0,0.71842,0.06382,0.91068,0.191475zm0,0.377148-0.39462-0.266905c-0.1619-0.09864-0.39463-0.150859-0.69819-0.150859-0.32379,0-0.63747,0.139255-0.9309,0.417764-0.29344,0.27851-0.44522,0.707878-0.44522,1.282304,0,0.586031,0.15178,1.0154,0.44522,1.293909,0.29343,0.27851,0.60711,0.417764,0.9309,0.417764,0.30356,0,0.53629-0.05222,0.69819-0.156661l0.39462-0.261103zm1.09281,0,0,2.576213,0.39462,0.261103c0.1619,0.104441,0.38451,0.156661,0.68806,0.156661,0.33392,0,0.63747-0.145057,0.93091-0.423566,0.30356-0.27851,0.44522-0.707879,0.44522-1.288107s-0.14166-1.009597-0.44522-1.282304c-0.29344-0.278509-0.59699-0.417764-0.93091-0.417764-0.30355,0-0.52616,0.05222-0.68806,0.150859zm7.84189,3.028791c0.58688,0,1.02198-0.145057,1.32554-0.440973,0.30355-0.295917,0.44521-0.731088,0.44521-1.305514,0-0.568623-0.14166-1.003794-0.44521-1.299711-0.30356-0.290114-0.73866-0.435171-1.32554-0.435171-0.58687,0-1.03209,0.145057-1.32553,0.435171-0.30356,0.295917-0.44522,0.731088-0.44522,1.299711,0,0.574426,0.14166,1.009597,0.44522,1.305514,0.30356,0.295916,0.73866,0.440973,1.32553,0.440973zm0,0.371346c-0.92079,0-1.64932-0.191475-2.20585-0.574426-0.55652-0.388753-0.83984-0.905156-0.83984-1.543407s0.2732-1.148851,0.82972-1.531802c0.55653-0.388753,1.29518-0.580228,2.21597-0.580228s1.65945,0.191475,2.20585,0.580228c0.55652,0.382951,0.83984,0.893551,0.83984,1.531802s-0.28332,1.154654-0.83984,1.543407c-0.5464,0.382951-1.28506,0.574426-2.20585,0.574426zm6.13186-2.309308,0,0.394555c0,0.481589,0.15178,0.852935,0.4351,1.102434,0.29344,0.2553,0.71842,0.38295,1.26482,0.38295,0.55652,0,0.9815-0.145057,1.26482-0.429369,0.29344-0.284311,0.4351-0.702076,0.4351-1.259095,0-0.551217-0.14166-0.968981-0.4351-1.253293-0.28332-0.284311-0.7083-0.423566-1.26482-0.423566-0.5464,0-0.97138,0.12765-1.26482,0.38295-0.28332,0.255301-0.4351,0.620845-0.4351,1.102434zm-1.09281-1.404152-1.04221,0,0-0.40616,2.13502,0,0,0.626647c0.22261-0.249499,0.49581-0.435172,0.8196-0.557019,0.33392-0.121848,0.73866-0.179871,1.22435-0.179871,0.76901,0,1.40648,0.197277,1.89218,0.58603,0.49581,0.388753,0.73865,0.899354,0.73865,1.526,0,0.632449-0.24284,1.14305-0.73865,1.531803-0.4857,0.394555-1.12317,0.58603-1.89218,0.58603-0.48569,0-0.89043-0.05802-1.22435-0.174068-0.32379-0.121848-0.59699-0.307521-0.8196-0.557019v1.827718h1.04221v0.40616h-3.17723v-0.40616h1.04221zm6.80981,3.609019,0-0.400358,0.9815,0,0-3.214463-0.9815,0,0-0.400358,2.54988,0,1.77075,2.761886,1.77075-2.761886,2.46893,0,0,0.400358-0.9815,0,0,3.214463,0.9815,0,0,0.400358-3.05581,0,0-0.400358,0.9815,0,0-3.10422-1.99336,3.098418-0.79936,0-1.98325-3.098418,0,3.10422,0.98151,0,0,0.400358zm13.82197-1.264897,0-0.847134-1.40648,0c-0.53629,0-0.94103,0.07543-1.20411,0.220487-0.2732,0.150859-0.40475,0.377148-0.40475,0.684669,0,0.27851,0.14166,0.498997,0.40475,0.667263,0.2732,0.162464,0.63747,0.243696,1.0928,0.243696,0.45534,0,0.81961-0.09284,1.10293-0.266905,0.2732-0.179871,0.41486-0.411962,0.41486-0.702076zm1.09281-1.241689,0,2.106228,0.97138,0,0,0.400358-2.06419,0,0-0.435171c-0.24285,0.185673-0.51605,0.319125-0.82972,0.411962-0.3238,0.08703-0.68807,0.12765-1.11305,0.12765-0.69818,0-1.2547-0.116046-1.66956-0.353939-0.40474-0.237894-0.60712-0.557019-0.60712-0.957377,0-0.417764,0.23273-0.736889,0.69819-0.968981,0.47557-0.226289,1.13328-0.342334,1.99336-0.342334h1.5279v-0.272707c0-0.307521-0.14166-0.539613-0.4351-0.707879s-0.69818-0.249498-1.22435-0.249498c-0.4351,0-0.77913,0.06383-1.04221,0.185673-0.25296,0.12765-0.40474,0.313323-0.47557,0.557019h-0.55652v-0.806517c0.37438-0.104441,0.73865-0.185673,1.10292-0.232091,0.35415-0.05222,0.69818-0.08123,1.04221-0.08123,0.8702,0,1.53803,0.139255,1.99336,0.417764,0.45534,0.272707,0.68807,0.673065,0.68807,1.201072zm7.37644,2.506586-5.62593,0,0-0.400358,0.9815,0,0-3.214463-0.9815,0,0-0.400358,3.05581,0,0,0.400358-0.99162,0,0,3.150638,2.88379,0,0-3.150638-0.9815,0,0-0.400358,3.05581,0,0,0.400358-0.97138,0,0,3.214463,0.97138,0,0,1.467978-0.61723,0-0.0911-0.53381c-0.0708-0.359742-0.29344-0.53381-0.68806-0.53381zm2.14514,0,0-0.400358,0.9815,0,0-3.214463-0.9815,0,0-0.400358,3.05581,0,0,0.400358-0.98151,0,0,2.303505,2.8838-1.943764,0-0.359741-0.9815,0,0-0.400358,3.05581,0,0,0.400358-0.98151,0,0,3.214463,0.98151,0,0,0.400358-3.05581,0,0-0.400358,0.9815,0,0-2.245482-2.8838,1.943764,0,0.301718,0.98151,0,0,0.400358zm11.31256-0.266905c0.58688,0,1.0321-0.145057,1.33566-0.440973,0.29343-0.295917,0.44521-0.731088,0.44521-1.305514,0-0.568623-0.15178-1.003794-0.44521-1.299711-0.30356-0.290114-0.74878-0.435171-1.33566-0.435171-0.57675,0-1.02197,0.145057-1.32553,0.435171-0.29344,0.295917-0.44522,0.731088-0.44522,1.299711,0,0.574426,0.15178,1.009597,0.45534,1.305514,0.29344,0.295916,0.73866,0.440973,1.31541,0.440973zm0,0.371346c-0.91067,0-1.64932-0.191475-2.20585-0.574426-0.55652-0.388753-0.82972-0.905156-0.82972-1.543407s0.2732-1.148851,0.82972-1.531802c0.55653-0.388753,1.29518-0.580228,2.20585-0.580228,0.92079,0,1.65945,0.191475,2.21597,0.580228,0.55652,0.382951,0.83984,0.893551,0.83984,1.531802s-0.28332,1.154654-0.83984,1.543407c-0.55652,0.382951-1.29518,0.574426-2.21597,0.574426zm10.11858-3.719262,0,3.214463,0.9815,0,0,0.400358-3.05581,0,0-0.400358,0.9815,0,0-1.549209-2.88379,0,0,1.549209,0.9815,0,0,0.400358-3.05581,0,0-0.400358,0.9815,0,0-3.214463-0.9815,0,0-0.400358,3.05581,0,0,0.400358-0.9815,0,0,1.19527,2.88379,0,0-1.19527-0.9815,0,0-0.400358,3.05581,0,0,0.400358zm8.08474,0,0,3.214463,0.9815,0,0,0.400358-3.05581,0,0-0.400358,0.98151,0,0-1.549209-2.8838,0,0,1.549209,0.9815,0,0,0.400358-3.05581,0,0-0.400358,0.98151,0,0-3.214463-0.98151,0,0-0.400358,3.05581,0,0,0.400358-0.9815,0,0,1.19527,2.8838,0,0-1.19527-0.98151,0,0-0.400358,3.05581,0,0,0.400358zm5.26166,3.347916c0.597,0,1.0321-0.145057,1.33565-0.440973,0.29344-0.295917,0.44522-0.731088,0.44522-1.305514,0-0.568623-0.15178-1.003794-0.44522-1.299711-0.30355-0.290114-0.73865-0.435171-1.33565-0.435171-0.57676,0-1.02197,0.145057-1.31541,0.435171-0.30356,0.295917-0.45534,0.731088-0.45534,1.299711,0,0.574426,0.15178,1.009597,0.45534,1.305514,0.30355,0.295916,0.73865,0.440973,1.31541,0.440973zm0,0.371346c-0.91067,0-1.63921-0.191475-2.19573-0.574426-0.55652-0.388753-0.83984-0.905156-0.83984-1.543407s0.2732-1.148851,0.82972-1.531802c0.55652-0.388753,1.29518-0.580228,2.20585-0.580228,0.92079,0,1.66957,0.191475,2.21597,0.580228,0.55652,0.382951,0.83984,0.893551,0.83984,1.531802s-0.28332,1.154654-0.83984,1.543407c-0.5464,0.382951-1.29518,0.574426-2.21597,0.574426zm10.22988-2.042403-4.69502,0,0,0.03481c0,0.539612,0.1619,0.945771,0.47558,1.224281,0.32379,0.272707,0.79936,0.411962,1.4166,0.411962,0.48569,0,0.87019-0.08123,1.18387-0.237894,0.30356-0.162463,0.51605-0.400357,0.63747-0.71368h0.88032c-0.17202,0.440973-0.49581,0.771703-0.96127,0.99219-0.46545,0.220487-1.08269,0.33073-1.8517,0.33073-0.92079,0-1.65944-0.191475-2.21597-0.574426-0.55652-0.388753-0.83984-0.905156-0.83984-1.543407,0-0.632448,0.28332-1.143049,0.82973-1.531802,0.5464-0.382951,1.26482-0.580228,2.15525-0.580228,0.95115,0,1.67969,0.185673,2.19573,0.562821,0.50593,0.371346,0.76901,0.916761,0.78925,1.624639zm-1.28506-0.400358c-0.0202-0.464182-0.18213-0.818121-0.46545-1.056015-0.28332-0.237893-0.69818-0.353939-1.23447-0.353939-0.49581,0-0.89043,0.116046-1.18387,0.353939-0.28332,0.243696-0.46546,0.591833-0.52617,1.056015zm-108.724095,9.742028c0.586877,0,1.032094-0.145057,1.325533-0.440973,0.303557-0.295917,0.445217-0.725285,0.445217-1.299711s-0.14166-1.009597-0.445217-1.299711c-0.293439-0.295917-0.738656-0.440974-1.325533-0.440974-0.586878,0-1.032095,0.145057-1.325534,0.440974-0.303557,0.290114-0.445217,0.725285-0.445217,1.299711s0.151779,1.003794,0.445217,1.299711c0.303557,0.295916,0.738656,0.440973,1.325534,0.440973zm0,0.377148c-0.920791,0-1.649328-0.197277-2.20585-0.580228-0.556522-0.388753-0.839842-0.899353-0.839842-1.537604s0.28332-1.154654,0.829724-1.537605c0.556521-0.382951,1.295177-0.580228,2.215968-0.580228,0.92079,0,1.659446,0.197277,2.215968,0.580228,0.546403,0.382951,0.829723,0.899354,0.829723,1.537605s-0.28332,1.148851-0.829723,1.537604c-0.556522,0.382951-1.295178,0.580228-2.215968,0.580228zm4.249802-2.117832-0.05059-0.667263c-0.03036-0.266905-0.04048-0.464182-0.04048-0.580228,0-0.116045,0.03036-0.284312,0.08095-0.493194,0.04047-0.214684,0.131541-0.406159,0.263083-0.580228,0.35415-0.446776,0.870197-0.777506,1.538023-0.980586,0.364269-0.110243,0.819605-0.185673,1.366008-0.220486,0.546403-0.03481,0.910672-0.06963,1.072569-0.104441,0.161897-0.03481,0.333913-0.09864,0.505929-0.179871,0.182134-0.08123,0.28332-0.145057,0.313676-0.185673h0.627352c-0.06071,0.237894-0.242846,0.475787-0.546403,0.713681-0.313676,0.237893-0.607115,0.371346-0.890435,0.400357-1.335652,0.133453-2.13502,0.226289-2.387984,0.290114-0.252964,0.06383-0.576759,0.232091-0.971383,0.504799-0.252965,0.174068-0.384506,0.498996-0.384506,0.968981,0.21249-0.266905,0.49581-0.498997,0.860079-0.702076,0.35415-0.197278,0.92079-0.301719,1.689802-0.301719,0.92079,0,1.649328,0.197277,2.205849,0.580228,0.556522,0.382951,0.839842,0.899354,0.839842,1.537605s-0.28332,1.148851-0.839842,1.537604c-0.556521,0.382951-1.285059,0.580228-2.205849,0.580228-0.920791,0-1.639209-0.185673-2.175494-0.551216-0.526166-0.371346-0.809486-0.893552-0.870197-1.566616zm3.045691-1.740685c-1.183874,0-1.780869,0.580228-1.780869,1.740685,0,0.574426,0.151778,1.003794,0.455335,1.299711,0.303558,0.295916,0.738656,0.440973,1.325534,0.440973,1.183873,0,1.770751-0.580228,1.770751-1.740684,0-1.160457-0.586878-1.740685-1.770751-1.740685zm11.545292-0.266905,3.05581,0,0,0.400358-0.9815,0,0,3.214464,0.9815,0,0,1.467977-0.60711,0-0.10119-0.53381c-0.0607-0.353939-0.29344-0.53381-0.68806-0.53381h-9.106719v-0.400357h0.981499v-3.214464h-0.981499v-0.400358h3.055809v0.400358h-0.9815v3.150639h2.63083v-3.150639h-0.9815v-0.400358h3.05581v0.400358h-0.9815v3.150639h2.63082v-3.150639h-0.9815zm9.95668,2.083019-4.69502,0,0,0.02901c0,0.539612,0.1619,0.945772,0.47558,1.224281,0.32379,0.27851,0.79936,0.411962,1.4166,0.411962,0.48569,0,0.87019-0.07543,1.18387-0.237893,0.30356-0.162464,0.51605-0.394556,0.63747-0.713681h0.88032c-0.17202,0.440973-0.49581,0.771703-0.96127,0.99219-0.46545,0.226289-1.08269,0.336532-1.8517,0.336532-0.92079,0-1.65944-0.197277-2.21597-0.580228-0.55652-0.388753-0.82972-0.899353-0.82972-1.537604s0.2732-1.148852,0.81961-1.531803c0.5464-0.388753,1.26482-0.58603,2.15525-0.58603,0.95115,0,1.67969,0.191475,2.19573,0.562821,0.50593,0.371346,0.76901,0.916761,0.78925,1.630441zm-1.28506-0.400357c-0.0202-0.469985-0.18213-0.823924-0.46545-1.061818-0.28332-0.237893-0.69818-0.353939-1.23447-0.353939-0.49581,0-0.89043,0.121848-1.18387,0.359742-0.28332,0.237893-0.46546,0.591832-0.52617,1.056015zm8.12522,1.125643c-0.15178,0.429368-0.44522,0.754296-0.89044,0.980585-0.43509,0.220487-1.00173,0.336532-1.69992,0.336532-0.91067,0-1.64932-0.197277-2.20585-0.580228-0.55652-0.388753-0.83984-0.899353-0.83984-1.537604,0-0.644054,0.28332-1.154654,0.83984-1.537605,0.55653-0.382951,1.29518-0.580228,2.20585-0.580228,0.39463,0,0.79937,0.03481,1.194,0.09284,0.39462,0.05802,0.78924,0.145057,1.18387,0.266905v1.027004h-0.62735c-0.0809-0.348137-0.26309-0.609239-0.54641-0.771703-0.2732-0.156662-0.67794-0.237894-1.19399-0.237894-0.58688,0-1.03209,0.145057-1.32553,0.435171-0.30356,0.290114-0.45534,0.725286-0.45534,1.305514s0.15178,1.015399,0.44522,1.305513c0.30356,0.290114,0.74877,0.435171,1.33565,0.435171,0.47558,0,0.84996-0.07543,1.12316-0.232091,0.28332-0.156662,0.47558-0.388753,0.57676-0.707878zm6.8098-2.808305,0,1.090829-0.62735,0,0-0.626646-1.71004,0,0,3.150639,0.9815,0,0,0.400357-3.05581,0,0-0.400357,0.9815,0,0-3.150639-1.71004,0,0,0.626646-0.61723,0,0-1.090829zm4.37123,0c1.37612,0,2.06418,0.33073,2.06418,0.99219,0,0.237894-0.12142,0.429369-0.36426,0.568624-0.24285,0.145057-0.597,0.232091-1.05234,0.266905,1.16364,0.08703,1.75052,0.429369,1.75052,1.027004,0,0.394555-0.21249,0.690471-0.62735,0.876144-0.42498,0.191476-1.08269,0.284312-1.98324,0.284312h-3.27842v-0.400357h0.99162v-3.214464h-0.99162v-0.400358zm-1.40649,1.589825,1.00174,0c0.41486,0,0.73866-0.05222,0.97139-0.168266,0.2226-0.110243,0.33391-0.249498,0.33391-0.423566,0-0.174069-0.11131-0.313324-0.34403-0.429369-0.23273-0.110243-0.54641-0.168266-0.96127-0.168266h-1.00174zm0,2.024997,1.20411,0c0.46546,0,0.81961-0.06963,1.07257-0.214685,0.25297-0.139255,0.37439-0.324928,0.37439-0.551217,0-0.232091-0.12142-0.411962-0.37439-0.551216-0.25296-0.139255-0.60711-0.208882-1.07257-0.208882h-1.20411zm7.96332,0.133452c0.58688,0,1.02198-0.145057,1.32554-0.440973,0.30355-0.295917,0.44521-0.725285,0.44521-1.299711s-0.14166-1.009597-0.44521-1.299711c-0.30356-0.295917-0.73866-0.440974-1.32554-0.440974-0.58687,0-1.03209,0.145057-1.32553,0.440974-0.30356,0.290114-0.44522,0.725285-0.44522,1.299711s0.14166,1.003794,0.44522,1.299711c0.30356,0.295916,0.73866,0.440973,1.32553,0.440973zm0,0.377148c-0.92079,0-1.64933-0.197277-2.20585-0.580228-0.55652-0.388753-0.83984-0.899353-0.83984-1.537604s0.2732-1.154654,0.82972-1.537605c0.55653-0.382951,1.29518-0.580228,2.21597-0.580228s1.65945,0.197277,2.20585,0.580228c0.55652,0.382951,0.83984,0.899354,0.83984,1.537605s-0.28332,1.148851-0.83984,1.537604c-0.5464,0.382951-1.28506,0.580228-2.20585,0.580228z"/>
   <path id="path2999" fill-rule="nonzero" fill="#141515" d="m1.0523319,18.828403c1.8921737-0.551216,4.0777861-0.823924,6.5669557-0.823924,4.5634774,0,6.8401574,1.038609,6.8401574,3.121628,0,1.172061-0.576759,1.914753-1.720158,2.239681-1.153518,0.324927-1.861818,0.493194-2.135019,0.5106,1.598735,0.145057,2.802845,0.429369,3.602213,0.847133,0.809486,0.411962,1.214229,1.183666,1.214229,2.297704,0,1.108236-0.738656,1.949567-2.20585,2.529795-1.467193,0.574426-3.2986556,0.86454-5.484268,0.86454-2.003478,0-3.6528059-0.307521-4.9581022-0.922563-1.2951777-0.615042-2.09454522-1.369339-2.38798392-2.26289h2.39810252c0.7285374,1.392548,2.408221,2.094624,5.0390508,2.094624,1.335652,0,2.4385768-0.237894,3.3188928-0.707879,0.880316-0.464182,1.315415-1.032806,1.315415-1.688464,0-0.66146-0.475573-1.235886-1.426719-1.711673-0.941028-0.475787-2.3576285-0.71368-4.2396836-0.71368h-1.4975492v-1.172061h0.7791303c1.9022923,0,3.2986558-0.191475,4.2093275-0.562821,0.890435-0.377149,1.345771-0.858738,1.345771-1.450571,0-0.673064-0.384506-1.201072-1.153518-1.572418-0.7690117-0.377148-1.811225-0.568624-3.1165213-0.568624-2.792727,0-4.3105134,0.632449-4.5533592,1.897346h-1.7505136zm27.2290881,7.566176,0-2.489179-3.865296,0c-1.477312,0-2.580237,0.220486-3.308775,0.655658-0.728537,0.435171-1.082687,1.102433-1.082687,2.001787,0,0.818121,0.364268,1.467977,1.102924,1.949566,0.738657,0.48159,1.740396,0.719483,2.98498,0.719483,1.254704,0,2.256443-0.261102,3.015336-0.78911,0.769012-0.522205,1.153518-1.201072,1.153518-2.048205zm2.974861-3.649636,0,6.173628,2.671304,0,0,1.177863-5.646165,0,0-1.2707c-0.657708,0.545415-1.42672,0.945772-2.296917,1.201073-0.860079,0.261102-1.871937,0.388753-3.045691,0.388753-1.912411,0-3.430198-0.342335-4.55336-1.038609s-1.689802-1.630441-1.689802-2.814106c0-1.218479,0.647589-2.164251,1.932648-2.837316,1.285059-0.667262,3.106403-1.003795,5.453913-1.003795h4.199209v-0.806517c0-0.893551-0.404743-1.584023-1.193992-2.077217-0.799368-0.493193-1.92253-0.736889-3.349249-0.736889-1.20411,0-2.155257,0.185673-2.853438,0.551216-0.698182,0.371346-1.133281,0.916761-1.325534,1.642046h-1.527905v-2.378935c1.032095-0.307521,2.043953-0.53381,3.025454-0.68467,0.981502-0.150859,1.932648-0.226289,2.853439-0.226289,2.398102,0,4.219446,0.40616,5.474149,1.212677,1.244585,0.806517,1.871937,1.984381,1.871937,3.527787z"/>
  </g>
 </g>
</svg>
