<?xml version="1.0" encoding="UTF-8" standalone="no"?>
<!-- Created with Inkscape (http://www.inkscape.org/) -->

<svg
   xmlns:dc="http://purl.org/dc/elements/1.1/"
   xmlns:cc="http://creativecommons.org/ns#"
   xmlns:rdf="http://www.w3.org/1999/02/22-rdf-syntax-ns#"
   xmlns:svg="http://www.w3.org/2000/svg"
   xmlns="http://www.w3.org/2000/svg"
   xmlns:sodipodi="http://sodipodi.sourceforge.net/DTD/sodipodi-0.dtd"
   xmlns:inkscape="http://www.inkscape.org/namespaces/inkscape"
   width="499.10001"
   height="58.526676"
   id="svg5454"
   version="1.1"
   inkscape:version="0.48.4 r9939"
   sodipodi:docname="subtitle.svg">
  <defs
     id="defs5456" />
  <sodipodi:namedview
     id="base"
     pagecolor="#000000"
     bordercolor="#666666"
     borderopacity="1.0"
     inkscape:pageopacity="0"
     inkscape:pageshadow="2"
     inkscape:zoom="0.98994949"
     inkscape:cx="319.07606"
     inkscape:cy="1.2308111"
     inkscape:document-units="px"
     inkscape:current-layer="layer1"
     showgrid="false"
     fit-margin-top="0"
     fit-margin-left="0"
     fit-margin-right="0"
     fit-margin-bottom="0"
     inkscape:window-width="1215"
     inkscape:window-height="1000"
     inkscape:window-x="65"
     inkscape:window-y="24"
     inkscape:window-maximized="1" />
  <metadata
     id="metadata5459">
    <rdf:RDF>
      <cc:Work
         rdf:about="">
        <dc:format>image/svg+xml</dc:format>
        <dc:type
           rdf:resource="http://purl.org/dc/dcmitype/StillImage" />
        <dc:title></dc:title>
      </cc:Work>
    </rdf:RDF>
  </metadata>
  <g
     inkscape:label="Layer 1"
     inkscape:groupmode="layer"
     id="layer1"
     transform="translate(-139.02142,-434.52742)">
    <g
       id="g5121"
       transform="translate(-126.27857,785.02742)">
      <g
         id="g1530">
        <g
           id="g1532">
          <path
             id="path1534"
             d="m 299.9,-322.9 c 5.9,0 11,-3.7 13.1,-8.9 h 2 c -2.3,6.3 -8.3,10.8 -15.1,10.8 -8.6,0 -15.6,-6.6 -15.6,-14.7 0,-8.1 7,-14.7 15.6,-14.7 6.8,0 12.8,4.5 15.1,10.8 h -2 c -2.1,-5.2 -7.2,-8.9 -13.1,-8.9 -7.5,0 -13.6,5.8 -13.6,12.8 0,7.1 6.1,12.8 13.6,12.8 z"
             inkscape:connector-curvature="0"
             style="fill:#f8f7f8" />
          <path
             id="path1536"
             d="m 355.7,-321 h -2.3 l -3.6,-5.1 h -29.9 c -1.1,1.6 -2.5,3.6 -3.6,5.1 H 314 l 20.9,-29.4 20.8,29.4 z m -20.8,-26.2 c -4.8,6.7 -8.8,12.5 -13.6,19.3 h 27.2 l -13.6,-19.3 z"
             inkscape:connector-curvature="0"
             style="fill:#f8f7f8" />
          <path
             id="path1538"
             d="m 358.7,-350.4 h 8.3 c 4.6,0 8.3,3.5 8.3,7.8 0,4.3 -3.7,7.8 -8.3,7.8 h -6.3 v 13.7 h -2 v -29.3 z m 8.4,13.8 c 3.5,0 6.3,-2.7 6.3,-5.9 0,-3.2 -2.9,-5.9 -6.3,-5.9 h -6.3 v 11.9 h 6.3 z"
             inkscape:connector-curvature="0"
             style="fill:#f8f7f8" />
          <path
             id="path1540"
             d="m 375.8,-348.5 v -1.8 h 40.7 v 1.8 h -19.4 v 27.5 h -2 v -27.5 h -19.3 z"
             inkscape:connector-curvature="0"
             style="fill:#f8f7f8" />
          <path
             id="path1542"
             d="m 419.8,-350.4 h 2 v 14.7 c 0,7 6.1,12.8 13.6,12.8 7.5,0 13.7,-5.8 13.7,-12.8 v -14.7 h 2 v 14.7 c 0,8.1 -7,14.7 -15.6,14.7 -8.6,0 -15.6,-6.6 -15.6,-14.7 v -14.7 z"
             inkscape:connector-curvature="0"
             style="fill:#f8f7f8" />
          <path
             id="path1544"
             d="m 470.8,-321 -11.9,-13.7 h 6.8 c 4.5,0 8.5,-2.9 8.5,-6.8 0,-4.4 -4.5,-6.9 -8.5,-6.9 h -8.5 v 27.5 h -2 v -29.4 h 10.5 c 5.8,0 10.5,4 10.5,8.8 0,4.8 -4.6,8.7 -10.5,8.7 h -2.6 c 3.3,3.7 7.3,8.4 10.3,11.9 h -2.6 z"
             inkscape:connector-curvature="0"
             style="fill:#f8f7f8" />
          <path
             id="path1546"
             d="m 479.8,-350.4 h 21.4 v 1.8 h -19.4 v 11.9 h 15.5 v 1.9 h -15.5 v 11.9 h 19.4 v 1.8 h -21.4 v -29.3 z"
             inkscape:connector-curvature="0"
             style="fill:#f8f7f8" />
          <path
             id="path1548"
             d="m 522.3,-348.5 v -1.8 H 563 v 1.8 h -19.4 v 27.5 h -2 v -27.5 h -19.3 z"
             inkscape:connector-curvature="0"
             style="fill:#f8f7f8" />
          <path
             id="path1550"
             d="m 592.9,-321 v -13.7 h -25.4 v 13.7 h -2 v -29.4 h 2 v 13.7 h 25.4 v -13.7 h 2 v 29.4 h -2 z"
             inkscape:connector-curvature="0"
             style="fill:#f8f7f8" />
          <path
             id="path1552"
             d="m 599.5,-350.4 h 21.4 v 1.8 h -19.4 v 11.9 H 617 v 1.9 h -15.5 v 11.9 h 19.4 v 1.8 h -21.4 v -29.3 z"
             inkscape:connector-curvature="0"
             style="fill:#f8f7f8" />
          <path
             id="path1554"
             d="m 644.1,-350.4 h 21.4 v 1.8 h -19.4 v 11.9 h 15.5 v 1.9 h -15.5 v 13.7 h -2 v -29.3 z"
             inkscape:connector-curvature="0"
             style="fill:#f8f7f8" />
          <path
             id="path1556"
             d="m 689.3,-322.9 v 1.8 h -21.4 v -29.4 h 2 v 27.5 h 19.4 z"
             inkscape:connector-curvature="0"
             style="fill:#f8f7f8" />
          <path
             id="path1558"
             d="m 733.8,-321 h -2.3 l -3.6,-5.1 H 698 c -1.1,1.6 -2.5,3.6 -3.6,5.1 h -2.3 l 20.9,-29.4 20.8,29.4 z m -20.9,-26.2 c -4.8,6.7 -8.8,12.5 -13.6,19.3 h 27.2 l -13.6,-19.3 z"
             inkscape:connector-curvature="0"
             style="fill:#f8f7f8" />
          <path
             id="path1560"
             d="m 748,-336.6 h 16.4 c 0,8.7 -7,15.6 -15.6,15.6 -8.6,0 -15.6,-6.6 -15.6,-14.7 0,-8.1 7,-14.7 15.6,-14.7 6.8,0 12.7,4.5 15.1,10.8 h -2.1 c -2,-5.2 -7.2,-8.9 -13,-8.9 -7.5,0 -13.7,5.8 -13.7,12.8 0,7 6.1,12.8 13.7,12.8 7.3,0 13.3,-5.1 13.6,-11.9 H 748 v -1.8 z"
             inkscape:connector-curvature="0"
             style="fill:#f8f7f8" />
        </g>
      </g>
      <g
         id="g1562">
        <line
           id="line1564"
           y2="-296.10001"
           x2="753.29999"
           y1="-296.10001"
           x1="265.29999"
           style="fill:#f2f2f2" />
        <g
           id="g1566">
          <g
             id="g1568">
            <g
               id="g1570">
              <g
                 id="g1572">
                <path
                   id="path1574"
                   d="m 752.7,-298.6 c 0.7,0 0.5,-0.4 0.6,-0.5 -1.2,0.2 -0.5,0.7 -0.6,0.5 z"
                   inkscape:connector-curvature="0"
                   style="fill:#f2f2f2" />
                <polygon
                   id="polygon1576"
                   points="740.8,-297.6 741,-297.8 739.3,-297.4 "
                   style="fill:#f2f2f2" />
                <path
                   id="path1578"
                   d="m 729.7,-297.6 c 1.1,0.7 4,-0.1 6,0.1 l 0.3,0.2 0.9,-0.6 c -2.4,0.1 -5.5,0.5 -7.2,0.3 z"
                   inkscape:connector-curvature="0"
                   style="fill:#f2f2f2" />
                <path
                   id="path1580"
                   d="m 723.8,-299.2 c 0.4,0.3 -1.3,0.2 1.4,0.1 -0.1,0 -0.2,0 -0.3,-0.1 -0.2,0.1 -0.6,0.1 -1.1,0 z"
                   inkscape:connector-curvature="0"
                   style="fill:#f2f2f2" />
                <path
                   id="path1582"
                   d="m 724.9,-299.1 c 1.2,-0.1 -0.7,-0.3 0,0 l 0,0 z"
                   inkscape:connector-curvature="0"
                   style="fill:#f2f2f2" />
                <path
                   id="path1584"
                   d="m 719.5,-299 1.5,-0.2 c -0.3,-0.2 -1.7,-0.2 -1.2,-0.3 -1.5,0.1 -1.2,0.2 -0.3,0.5 z"
                   inkscape:connector-curvature="0"
                   style="fill:#f2f2f2" />
                <path
                   id="path1586"
                   d="m 718,-298.5 0.8,-0.1 c -0.1,0 -0.3,-0.1 -0.8,0.1 z"
                   inkscape:connector-curvature="0"
                   style="fill:#f2f2f2" />
                <path
                   id="path1588"
                   d="m 720.5,-298.8 -1.7,0.2 c 0.2,0.1 0.2,0.3 0.8,-0.1 -0.1,0.3 0.2,0.1 0.9,-0.1 z"
                   inkscape:connector-curvature="0"
                   style="fill:#f2f2f2" />
                <path
                   id="path1590"
                   d="m 721.5,-298.7 c 0.9,0.2 2,0.3 0.4,0.5 3,-0.1 2.6,-0.6 -0.4,-0.5 z"
                   inkscape:connector-curvature="0"
                   style="fill:#f2f2f2" />
                <path
                   id="path1592"
                   d="m 729.1,-296.9 1.2,0.2 1,-0.2 c -0.5,0.1 -2.2,-0.2 -2.2,0 z"
                   inkscape:connector-curvature="0"
                   style="fill:#f2f2f2" />
                <path
                   id="path1594"
                   d="m 709.9,-299.4 c -0.1,0.2 0.5,0.4 0.6,0.6 l 1.1,-0.2 c -0.5,0 -1.6,-0.1 -1.7,-0.4 z"
                   inkscape:connector-curvature="0"
                   style="fill:#f2f2f2" />
                <path
                   id="path1596"
                   d="m 710.5,-298.8 -1.7,0.3 c 1.6,0 1.8,-0.1 1.7,-0.3 z"
                   inkscape:connector-curvature="0"
                   style="fill:#f2f2f2" />
                <polygon
                   id="polygon1598"
                   points="717.8,-297.7 720.6,-298.2 717.2,-297.7 "
                   style="fill:#f2f2f2" />
                <polygon
                   id="polygon1600"
                   points="703.4,-299.4 704.4,-299.7 702.6,-299.2 "
                   style="fill:#f2f2f2" />
                <path
                   id="path1602"
                   d="m 699.1,-299.3 c 0.7,-0.3 -1,-0.5 -0.2,-0.7 -1.2,0.1 -2.2,0.3 -3.1,0.5 0.9,-0.1 1.9,0 3.3,0.2 z"
                   inkscape:connector-curvature="0"
                   style="fill:#f2f2f2" />
                <path
                   id="path1604"
                   d="m 694.3,-299.1 c 0.5,-0.1 1,-0.2 1.5,-0.3 -0.5,0 -1,0.1 -1.5,0.3 z"
                   inkscape:connector-curvature="0"
                   style="fill:#f2f2f2" />
                <path
                   id="path1606"
                   d="m 705.9,-298.6 c -0.1,-0.1 -0.4,-0.3 -1.3,-0.4 l 0.7,0.4 c 0.2,0 0.4,0 0.6,0 z"
                   inkscape:connector-curvature="0"
                   style="fill:#f2f2f2" />
                <path
                   id="path1608"
                   d="m 705.3,-298.6 0,0 c -0.8,0 -1.3,0 -1.5,0 0.2,0 0.6,0 1.5,0 z"
                   inkscape:connector-curvature="0"
                   style="fill:#f2f2f2" />
                <path
                   id="path1610"
                   d="m 706.1,-298.6 c -0.1,0 -0.1,0 -0.2,0 0.1,0.1 0.1,0.1 0.2,0 z"
                   inkscape:connector-curvature="0"
                   style="fill:#f2f2f2" />
                <path
                   id="path1612"
                   d="m 713.3,-298.1 c -1,0.2 -3.1,0.5 -1.1,0.9 0.8,-0.3 -0.4,-0.5 1.1,-0.9 z"
                   inkscape:connector-curvature="0"
                   style="fill:#f2f2f2" />
                <path
                   id="path1614"
                   d="m 706.9,-298 1.8,0.1 c 0,-0.1 -0.4,-0.3 0.1,-0.4 l -1.9,0.3 z"
                   inkscape:connector-curvature="0"
                   style="fill:#f2f2f2" />
                <polygon
                   id="polygon1616"
                   points="706,-297.9 706.9,-298 706.3,-298.1 "
                   style="fill:#f2f2f2" />
                <path
                   id="path1618"
                   d="m 697.4,-298.7 c -0.8,0.2 -1.6,0.2 -2.6,0.2 1,0.1 2.1,0.1 3.1,0.1 0.1,-0.1 0.6,-0.3 -0.5,-0.3 z"
                   inkscape:connector-curvature="0"
                   style="fill:#f2f2f2" />
                <path
                   id="path1620"
                   d="m 701.2,-298.6 c -0.1,0 -0.1,0 -0.2,0 0.1,0.1 0.2,0.1 0.2,0 z"
                   inkscape:connector-curvature="0"
                   style="fill:#f2f2f2" />
                <path
                   id="path1622"
                   d="m 685.2,-298.5 c 0.1,0 0.1,0.1 0.2,0.1 0,0 0,0 0,-0.1 l -0.2,0 z"
                   inkscape:connector-curvature="0"
                   style="fill:#f2f2f2" />
                <path
                   id="path1624"
                   d="m 698,-298.3 c 0.8,0.1 1.2,0 1.7,-0.2 -0.6,0 -1.2,0.1 -1.9,0.1 0,0.1 0,0.1 0.2,0.1 z"
                   inkscape:connector-curvature="0"
                   style="fill:#f2f2f2" />
                <path
                   id="path1626"
                   d="m 691.6,-298.9 c 0.4,0.1 0.9,0.2 1.3,0.2 -0.3,-0.1 -1.2,-0.3 -1.3,-0.2 z"
                   inkscape:connector-curvature="0"
                   style="fill:#f2f2f2" />
                <path
                   id="path1628"
                   d="m 700.8,-298.7 c 0,0 0.1,0 0.1,0 -0.3,-0.1 -0.2,-0.1 -0.1,0 z"
                   inkscape:connector-curvature="0"
                   style="fill:#f2f2f2" />
                <path
                   id="path1630"
                   d="m 700.8,-298.7 c -0.4,0.1 -0.7,0.2 -1,0.3 0.5,0 0.9,-0.1 1.3,-0.1 -0.2,-0.1 -0.3,-0.2 -0.3,-0.2 z"
                   inkscape:connector-curvature="0"
                   style="fill:#f2f2f2" />
                <path
                   id="path1632"
                   d="m 682.4,-295.8 c 0.1,-0.4 2.2,-0.8 4,-0.3 1.7,-0.3 0.6,-1.6 -0.9,-2.3 -0.1,0.2 -0.1,0.3 -1.8,0.6 0.6,0.2 4,0.5 2.5,0.9 -2.4,0.2 -1.9,-0.1 -3.1,-0.3 1,0.5 -3,0.7 -2.5,1.4 l 2.1,-0.3 c -0.2,0.1 -0.9,0.2 -0.3,0.3 z"
                   inkscape:connector-curvature="0"
                   style="fill:#f2f2f2" />
                <path
                   id="path1634"
                   d="m 688.8,-298.4 0.7,0 c -0.8,-0.1 -1.4,-0.2 -2.5,-0.5 -1.2,0.2 -1.5,0.3 -1.6,0.5 l 3.6,0.1 -0.2,-0.1 z"
                   inkscape:connector-curvature="0"
                   style="fill:#f2f2f2" />
                <path
                   id="path1636"
                   d="m 692.8,-298.4 c -0.6,0.4 -2.3,0.6 -1.3,1.1 2.2,0 1.5,-0.4 2.8,-0.5 -3.4,0 1.1,-0.3 -1.5,-0.6 0.7,0 1.3,0 1.9,-0.1 -0.6,-0.1 -1.2,-0.1 -1.8,-0.2 0,0 0.1,0 0.1,0 l 0,0 c 0,0 0,0 0,0 0.2,0.1 0.2,0.1 0,0.1 0,0 -0.1,0 -0.1,0 0.1,0.1 0,0.1 -0.1,0.2 -1,-0.1 -0.2,-0.1 0.2,-0.2 0,0 0,0 0,-0.1 0,0 0,0 0,0 l -3.5,0.2 c 0.8,0.1 1.7,0.1 3.3,0.1 z"
                   inkscape:connector-curvature="0"
                   style="fill:#f2f2f2" />
                <path
                   id="path1638"
                   d="m 710.4,-296.3 c -0.1,0 -0.1,-0.1 -0.1,-0.1 -0.3,0.1 -0.4,0.1 0.1,0.1 z"
                   inkscape:connector-curvature="0"
                   style="fill:#f2f2f2" />
                <path
                   id="path1640"
                   d="m 708.9,-296.5 c 0.3,-0.1 0.5,-0.2 1.3,-0.2 0.7,0.1 0,0.2 0,0.3 0.5,-0.1 1.7,-0.3 0.2,-0.5 l -0.2,0.1 c -1.4,-0.1 -3.2,-0.7 -3,-0.7 0.4,0.3 0.8,0.6 1.7,1 z"
                   inkscape:connector-curvature="0"
                   style="fill:#f2f2f2" />
                <path
                   id="path1642"
                   d="m 700.8,-297.4 -2.9,0.2 1.5,0.4 -0.1,-0.2 c 1.6,0.1 1.3,-0.2 1.5,-0.4 z"
                   inkscape:connector-curvature="0"
                   style="fill:#f2f2f2" />
                <polygon
                   id="polygon1644"
                   points="684.9,-298.7 685.3,-299.2 683.6,-298.5 "
                   style="fill:#f2f2f2" />
                <polygon
                   id="polygon1646"
                   points="681.1,-298.7 681.3,-299.1 680.3,-298.8 "
                   style="fill:#f2f2f2" />
                <path
                   id="path1648"
                   d="m 467.8,-293.7 -0.9,0.1 c 0.5,-0.1 0.7,-0.1 0.9,-0.1 z"
                   inkscape:connector-curvature="0"
                   style="fill:#f2f2f2" />
                <path
                   id="path1650"
                   d="m 474,-293.7 0.2,-0.2 c -0.3,0.1 -0.5,0.2 -0.2,0.2 z"
                   inkscape:connector-curvature="0"
                   style="fill:#f2f2f2" />
                <path
                   id="path1652"
                   d="m 588.3,-298.6 c -1.2,-0.4 -2.6,-0.9 -2.5,-0.5 l 0.4,0.4 c 0.8,-0.1 1.5,0 2.1,0.1 z"
                   inkscape:connector-curvature="0"
                   style="fill:#f2f2f2" />
                <path
                   id="path1654"
                   d="m 524.7,-296 c 0.1,0 0.2,0.1 0.4,0.1 0.3,-0.1 0.6,-0.3 0.8,-0.4 -0.4,0.1 -0.8,0.2 -1.2,0.3 z"
                   inkscape:connector-curvature="0"
                   style="fill:#f2f2f2" />
                <path
                   id="path1656"
                   d="m 523.8,-294.2 -1.6,-0.3 c 0.3,0.1 0.9,0.2 1.6,0.3 z"
                   inkscape:connector-curvature="0"
                   style="fill:#f2f2f2" />
                <path
                   id="path1658"
                   d="m 434,-293.3 -1,0.4 c 1.6,0.1 0.9,-0.2 1,-0.4 z"
                   inkscape:connector-curvature="0"
                   style="fill:#f2f2f2" />
                <path
                   id="path1660"
                   d="m 642.4,-298.5 c -1.1,-0.2 -1.9,-0.2 -2.7,-0.3 1.3,0.3 2.4,0.7 2.7,0.3 z"
                   inkscape:connector-curvature="0"
                   style="fill:#f2f2f2" />
                <path
                   id="path1662"
                   d="m 470.2,-298.4 c -0.5,0.1 -0.7,0.2 -0.7,0.3 0.5,-0.1 0.9,-0.1 0.7,-0.3 z"
                   inkscape:connector-curvature="0"
                   style="fill:#f2f2f2" />
                <path
                   id="path1664"
                   d="m 636.6,-298.8 c 0.2,0 0.4,0.1 0.6,0.1 0.8,-0.1 1.6,-0.1 2.5,-0.1 -0.9,-0.1 -2,-0.3 -3.1,0 z"
                   inkscape:connector-curvature="0"
                   style="fill:#f2f2f2" />
                <path
                   id="path1666"
                   d="m 311.4,-293.6 c -0.1,0 -0.2,0 -0.3,-0.1 0,0.1 0.2,0.1 0.3,0.1 z"
                   inkscape:connector-curvature="0"
                   style="fill:#f2f2f2" />
                <path
                   id="path1668"
                   d="m 275.7,-298 c 0.4,0 0.9,0 1.5,0 -0.3,-0.1 -0.7,-0.1 -1.5,0 z"
                   inkscape:connector-curvature="0"
                   style="fill:#f2f2f2" />
                <path
                   id="path1670"
                   d="m 665.9,-298.8 c 0.8,-0.1 0.1,-0.1 0,0 l 0,0 z"
                   inkscape:connector-curvature="0"
                   style="fill:#f2f2f2" />
                <path
                   id="path1672"
                   d="m 669.8,-297.1 c -0.2,0 -0.3,0.1 -0.3,0.2 0.1,-0.1 0.2,-0.2 0.3,-0.2 z"
                   inkscape:connector-curvature="0"
                   style="fill:#f2f2f2" />
                <path
                   id="path1674"
                   d="m 628.6,-296.1 c 0,0 0,0 0,0 0.2,0.1 0.2,0.1 0,0 z"
                   inkscape:connector-curvature="0"
                   style="fill:#f2f2f2" />
                <path
                   id="path1676"
                   d="m 667.1,-298.7 c -0.3,-0.1 -0.6,-0.1 -1,-0.1 0.2,0.1 0.5,0.1 1,0.1 z"
                   inkscape:connector-curvature="0"
                   style="fill:#f2f2f2" />
                <path
                   id="path1678"
                   d="m 667,-298.9 c 0.3,0 0.5,0 0.7,0 0.1,0 0,0 -0.7,0 z"
                   inkscape:connector-curvature="0"
                   style="fill:#f2f2f2" />
                <path
                   id="path1680"
                   d="m 664.8,-298.8 c 0.5,0 0.9,0 1.3,0 -0.2,0 -0.2,-0.1 -0.2,-0.1 -0.2,0.1 -0.6,0.1 -1.1,0.1 z"
                   inkscape:connector-curvature="0"
                   style="fill:#f2f2f2" />
                <path
                   id="path1682"
                   d="m 377.1,-294.8 c -0.1,0 -0.1,0 -0.2,0 -0.8,0.1 -0.4,0.1 0.2,0 z"
                   inkscape:connector-curvature="0"
                   style="fill:#f2f2f2" />
                <path
                   id="path1684"
                   d="m 567.4,-294.1 c 0.1,0 0.1,0 0,0 0.1,0 0,0 0,0 l 0,0 z"
                   inkscape:connector-curvature="0"
                   style="fill:#f2f2f2" />
                <path
                   id="path1686"
                   d="m 564.5,-293.8 c 1.2,-0.5 1.9,-0.5 2.9,-0.4 l -1,-1.3 -1.9,1.7 z"
                   inkscape:connector-curvature="0"
                   style="fill:#f2f2f2" />
                <path
                   id="path1688"
                   d="m 453,-293.6 2,0.4 c -2.4,0.6 -4.2,0.4 -2.3,1 0.3,-1.4 7.9,-0.1 8.1,-1.5 l 1.3,0.3 c -0.4,0 -0.4,0.1 -0.8,0.1 2.6,0.7 1.9,-1 5.3,-0.8 1.2,0.1 2,0.3 1.2,0.5 l 2.6,-0.3 c 0.8,0 0.6,0.3 -0.2,0.2 l 4,-0.1 0,0 c 0.6,-0.2 1.8,-0.5 2.5,-0.7 1,0.2 -0.5,0.1 -0.2,0.3 l 2.2,-0.3 c 0.9,0.4 -0.9,0.7 -2.4,0.6 2,1.4 1.8,-0.3 6.2,0.5 l -2.1,0.2 c 1.3,0.8 2.9,0.5 5.3,1 -0.6,-0.3 -4.7,-1.2 -2.3,-1.5 0.7,0.1 1.6,0.2 2.8,-0.1 0,0.5 1.3,0.4 2.8,0.3 l -0.1,0.6 c 1.7,-0.2 1.6,-0.5 2.6,-0.8 1.9,0.1 2.3,0.6 2.7,1 3,0.1 -2.1,-0.8 1.5,-0.9 2.5,0.2 4.3,0 7.3,-0.4 1.8,0.2 -0.3,0.4 0.3,0.6 l 1.6,-0.5 c 0.4,0 0.3,0.2 0.2,0.2 1.3,-0.2 0.1,-0.6 2.2,-0.8 0.6,-0.7 4.2,1 6.8,0.2 0.6,0.2 -0.3,0.4 -0.1,0.6 3.5,-0.5 3,-0.4 5.9,-1.1 l 2.5,0.4 c -1.8,-0.5 0.5,-1 2.5,-1.5 -0.6,-0.2 -1.2,-0.4 -1.6,-0.5 l 3.2,-0.3 c 0.4,0.1 0.1,0.3 -0.5,0.6 0.2,-0.1 0.4,-0.1 0.6,-0.2 1.2,0.2 0.6,0.6 -0.3,1 -0.4,-0.1 -0.8,-0.3 -1.2,-0.4 -0.8,0.4 -1.5,0.8 -1.4,1.2 0.2,-0.1 0.6,-0.1 1.1,-0.2 -0.2,0.1 -0.3,0.2 -0.2,0.3 0.1,0.1 0.4,-0.1 1,-0.2 l 0.7,0.7 0.2,-0.3 4.2,0.4 c 3,-0.7 5.6,-1.8 10.4,-2.1 -1.2,0.5 -0.3,0.9 -0.3,1.5 -1.3,-0.7 -3.7,0.3 -6.2,0.1 1.3,0.1 1,0.4 0.7,0.5 l 4.4,-0.6 c -0.1,0.5 0.9,0.4 2.1,0.6 -0.9,-1 3.3,-0.7 5.1,-1 0.1,0.3 -0.3,0.7 -2.5,0.6 2.4,0.8 3.1,-1.2 5.5,-0.5 -0.5,0 -0.8,0 -1,0.1 1.3,-0.3 4.3,-0.1 3.6,0.2 l -0.5,0 c 3.6,0.1 10.8,0 11.4,-0.8 0,0.1 -0.5,1 -0.7,1.2 l 6.4,-2.9 c -0.6,0.7 1.6,2.5 -1.4,2.9 0.8,0.1 1.9,0.2 3.7,0 -0.6,-0.1 -1.4,-1.1 -0.7,-1.1 2.2,0.8 1.5,0.4 4.2,1.1 -0.9,-0.2 0.1,-1.3 1.5,-1.3 -0.2,0.2 0.1,1.1 -0.4,1.3 l 3.4,-1.1 c -0.9,0.2 -0.2,1 0.6,1.3 -0.4,-0.2 2.9,0 3.9,-0.1 l -1.4,-0.3 c 3.8,0.2 3.8,-1.6 7.6,-1.5 -0.5,0.2 -1.1,1.4 0.8,1.6 0.9,-0.6 3.9,-2.8 7.3,-3.2 l 0.6,0.3 2.6,-0.4 c -1.6,0.9 -6.1,2.7 -8.6,3.4 1.4,0.3 0.4,0.4 2.6,0.4 0.8,0.3 -1.2,0.5 -1.8,0.5 l 5,0.2 c -0.2,-0.7 3.8,-0.7 3.6,-1.2 l -5.5,0.7 c -0.2,-0.7 3.2,-1.9 6.7,-1.8 0.9,0.3 -0.7,1.2 -0.6,1.4 0.5,-0.2 3.4,-0.4 3.7,-0.3 l -1.5,0.4 c 2,0.3 3.2,-0.9 5.6,-0.2 0.8,0 2.5,0.9 2.6,0.5 -1.3,-0.8 -1.6,-3.1 -0.7,-3.7 0.3,0.1 4.3,0.7 5.3,1.1 1.4,0.6 -2,1.4 -0.9,2 0,-0.2 0.8,-0.4 1.1,-0.5 0.9,0.2 -0.4,0.6 1.5,0.5 0.3,-0.7 3.8,0.1 0.9,-0.6 1.8,-0.2 1.9,0.1 4.1,0.1 -0.7,-0.4 1.9,-1.5 3.8,-1.7 -0.1,0.2 0.3,0.4 0.5,0.5 3.8,0.1 5.8,0.4 9.3,0.4 0.3,0.2 2,0.4 1.3,0.7 0.5,-0.1 1,-0.4 2,-0.4 2.1,0.6 -2.4,0.1 -0.8,0.8 0.1,-0.4 2.8,-0.5 4.3,-0.8 -0.5,-0.6 -3.6,-0.1 -5.1,0.1 0,-0.8 2.7,-1.7 6.3,-2.1 2.9,-0.2 1.3,0.5 1.8,0.4 5.5,0.1 4.7,-1.5 9.2,-0.9 1.8,0.5 0.1,1.1 0.5,1.5 -2.4,0.2 -3.6,-0.3 -5.3,-0.3 l 2,0.3 c -0.8,0.2 -2.3,0.3 -3.2,0.2 1.5,0.5 9.2,0.1 13.5,0.5 0.7,-0.2 2,-0.4 1.4,-0.6 l -1.3,0.1 c -1.2,-0.4 2.5,-0.6 0.8,-0.8 1.8,-0.3 3.8,-0.8 6.3,-0.5 l 0.5,0.6 c -0.1,-0.2 -1.6,-0.4 -2.4,-0.2 1.1,-0.3 3.9,0.8 5,0 l -1.8,-0.4 c 1.8,-0.3 4,-1 6.3,-0.8 -1,-0.6 -0.5,0.1 -2.1,-0.6 1.4,0.9 -5.7,0 -3.5,0.9 -1.6,-0.8 -2.8,-0.3 -5,-1 0.1,0.2 0.8,0.4 -1.1,0.3 -0.1,0.1 -0.3,0.1 -0.4,0.2 -0.1,0 -0.1,0 -0.1,0 0,0 0.1,0 0.1,0 -0.1,0 -0.1,0 0,0 0.4,0.1 0.8,0.2 1,0.3 -0.9,0.5 -3.9,0.4 -4.9,0.7 -1.1,-0.1 0.5,-0.2 -0.1,-0.4 l -1.5,0.4 c -0.1,-0.4 -3,-0.7 -0.3,-1 l -2.4,0 c -1.4,-0.3 -3.3,-0.4 -4.5,-0.2 -1.1,-0.1 -2.8,0.5 -1.8,0.1 l -3.7,0.3 0,-0.1 c -3.7,-0.1 -7.5,0.7 -11.7,-0.1 -1.2,0.1 -2.5,0.3 -4.6,0.1 l -0.4,-0.4 c -1.6,0.1 -4.7,-0.4 -5.4,0 -1.7,-1 -7.7,-0.2 -10.4,-0.4 l -0.1,0.5 c -1.9,0 -3.7,0.1 -6.1,0.3 l 0.1,0.4 c -2,0.4 -5.3,-0.3 -8.5,-0.3 0.2,-0.2 1,-0.1 1.6,0 -3.9,-1 -8.2,0.7 -11.7,0 -0.9,0.2 -1.5,0.1 -2.1,0 0.1,0 0.2,0 0.2,0 -0.1,0 -0.2,0 -0.4,0 -0.4,-0.1 -0.8,-0.2 -1.2,-0.2 0.4,0.1 0.7,0.2 1,0.2 -0.7,0 -1.7,0.1 -2.7,0.2 l -0.4,-0.5 c -0.1,0 -0.1,0 -0.2,0 -1,-0.2 -0.8,0.2 -0.3,0.6 -0.5,0.1 -1,0.2 -1.3,0.3 -0.8,-0.8 -2.6,0.3 -3.7,-0.6 -0.7,0.4 -5,0.3 -5.6,1.2 0,-0.1 -0.3,-0.2 0.2,-0.2 -1.1,-0.1 -2.2,-0.2 -3.2,0 l -0.5,-0.6 -2.4,0.8 c -1.5,-0.4 -2.1,-0.6 -0.6,-1.1 -3.6,0.7 -2.9,0.3 -5.9,1 l 0.1,-0.4 c -1.1,0 -2.8,0.5 -3.5,0.2 -2.4,-0.8 -12,-0.1 -18.2,-0.8 1.2,1.2 -2.9,-0.5 -3.1,0.4 -0.4,-0.3 -1.2,-0.4 -0.2,-0.7 -3.2,0.3 -4.8,-0.4 -6.9,0.3 -0.4,-0.3 0.7,-0.4 0.4,-0.6 -0.3,0.1 -1,0.2 -1.3,0.1 -0.3,-0.2 0.5,-0.2 1,-0.4 -3.2,0 -3.6,0.9 -3.8,1.7 -1.6,-0.4 -2.5,-0.3 -3.6,0.2 -0.6,-0.3 -1.5,-0.5 0.5,-0.6 -1.1,0 -6.9,-0.4 -7,0.3 -0.4,-0.2 -1.6,0 -1.9,0 -2.5,0 -2.8,-0.1 -5.2,0 l 0.7,0.1 c -1,0.8 -2.1,0.2 -4.1,0.3 l 0.1,-0.1 c -4.6,-0.6 -2,0.3 -6.5,-0.4 l 0.2,0.5 c -0.4,1 -4,-0.6 -6.7,-0.2 l 1,0.3 c -1.4,0.4 -4,-1.4 -5.5,-1.5 -0.3,-0.1 0.5,-0.1 0.9,-0.2 -3.8,-0.6 -0.5,0.6 -3.3,0.8 -0.5,-0.3 0.7,-0.9 -1.2,-0.9 -0.9,-0.3 -5.5,1.1 -8.1,0.5 0.6,0.3 1.1,0.5 -0.2,0.7 -2,0.1 -5.4,-1 -7.2,-0.2 -0.3,-0.1 -0.4,-0.1 -0.4,-0.2 -1.5,0.2 -5,0.4 -5.9,0.8 -1.4,-1.7 -9.5,0.8 -9.5,-0.7 l -4.7,0.1 0.1,-0.2 c -3,-0.1 -4.1,0.3 -5.1,0.6 -0.7,-0.1 -0.2,-0.2 -0.1,-0.3 -4.4,-0.3 -4.8,-0.2 -8.5,0.5 l -0.4,-0.5 c -1,0.3 -6.4,-0.8 -10.7,-0.2 0,-0.1 0.1,-0.2 0.5,-0.2 -4.9,0.6 -11.6,-1.4 -13.4,0.4 l -3.2,0.4 c 4.2,0.1 -0.6,0.8 1.1,1.1 -1.6,0.1 -4.2,-0.5 -2.2,-0.6 l 0.3,0.1 c 0.7,-0.9 -5.2,-0.3 -5,-1 -8.2,0 -16.1,-0.5 -23.8,-0.5 l 0.9,0.7 -2.7,0 c -0.7,-0.2 -0.9,-0.6 1,-0.5 -1,-0.4 -3.2,0.3 -3.2,0.5 -3.7,-0.3 1.5,-0.9 0.3,-0.9 l -1.6,0.1 0.4,0.1 c -1.3,0.3 -1.4,0.6 -3.7,0.6 -1.4,-0.1 -0.7,-0.5 -1.3,-0.5 0,-0.1 -0.2,-0.1 -0.9,0 l -3.4,-0.1 1.3,0.6 c -1.5,0.3 -3.2,0 -1.6,0.6 -2.3,-1 -12.5,-0.4 -13.9,-0.7 -2.1,0.4 -4.1,0.4 -6.7,0.4 0.6,0.1 1,0.8 -1.2,0.7 0.8,-1.3 -4,-0.6 -5.8,-1.5 1.6,0.6 -6.3,0.2 -3.8,1.1 -1.8,-0.1 -0.1,-0.5 -1.5,-0.8 -4.4,0.5 -9.6,-0.3 -15,-0.2 -0.1,0.2 0.8,0.4 -0.3,0.7 l -2.9,-0.9 c -1.1,0.1 -1,1 -2.9,0.4 0.3,0.1 0.7,0.4 0,0.4 -10.6,-0.9 -21.6,0.7 -32.4,-0.9 1.5,0.3 0.5,0.4 -0.6,0.4 0.7,0.1 0,0.4 0.1,0.7 l -4.5,-0.7 c -0.8,0.7 -4.8,0 -5.3,0.7 l 1.4,-0.1 c -1.9,0.7 2.7,1.7 2.4,2.6 2.1,-0.8 5.6,1.3 9.1,0 0.8,0.2 -0.7,0.3 -0.2,0.5 0.9,-0.4 1.9,-0.5 3.9,-0.3 l -0.2,0.1 c 5.6,-0.1 7.9,0.3 14.2,0.6 l -0.5,-0.5 c 1.3,0.1 1.6,0.2 2.3,0.3 1.5,-0.7 -3.8,0 -2.4,-0.8 1.8,1 9.5,0 10.7,1.1 2.1,0 -0.6,-0.5 1.5,-0.5 l 0.5,0.3 0.5,-0.4 c 1.4,0.1 2,0.4 2.1,0.7 -0.3,0 -0.9,0.1 -1.3,0.1 1.8,0.3 4.9,-0.1 5.5,0 l -2,-0.2 c 5.6,-0.3 12.5,0.1 17.9,-0.5 l -0.4,-0.2 c 4.2,-0.4 3.3,0.2 7.9,0.1 l -0.2,0.1 c 0.9,-0.2 2.1,-0.3 3.4,-0.3 -1.2,0.3 2.2,0.5 0.7,0.8 4.5,-0.4 2.2,-0.3 5.2,-1.2 l 0.7,0.4 c 1,-0.3 1.1,-0.5 3.4,-0.6 -1.9,0.3 1.5,0.6 -0.6,1 4.8,0.8 7.1,-0.8 9.3,0.4 2.2,-1 -4.1,-0.6 -2.9,-0.8 -1,-0.3 1.8,-0.8 3.3,-0.7 1.5,0 2.6,1.3 6.4,1.3 -0.4,0 -0.4,0.1 -0.8,0.1 1.4,0.3 2.8,-0.4 4.6,0.1 1,-0.6 2.3,0 2.6,-0.8 l -3.5,0.2 c 2,-0.2 3.9,-1.1 7.2,-0.7 -0.3,0.2 -1.2,0.4 -1.9,0.5 1,0.2 1.9,-0.2 2.8,0.1 -0.3,0.8 -4.3,0.2 -6.4,0.8 1,0.3 4,-0.6 3,0.3 1.5,-1.1 3.8,0.1 6.4,-0.7 l -0.2,0.5 c 0.4,-0.1 1.3,-0.3 2,-0.3 l -1.4,0.6 c 2.1,-0.5 4.1,0.5 6.1,0.2 -4.2,0 -0.9,-0.6 -2.7,-0.9 5.2,-0.6 3,1.2 8.8,1 -0.8,0.1 -3,-0.3 -1.7,-0.5 1.1,0.1 2.6,0.3 3.3,0.5 3.9,-0.1 -0.6,-0.5 1.1,-0.8 1.3,0.6 1.9,-0.2 3.6,-0.4 l 0,0.5 c 4.4,0.3 1.2,-1 5.1,-0.6 l -1.7,0.7 2.1,-0.2 -0.4,0.5 c 2.3,-0.4 3,-0.3 5.2,-0.1 -0.5,-0.3 0.3,-0.9 2.2,-0.9 1.3,0.3 -0.7,0.5 2,0.4 -0.6,0.3 -1.3,0.7 -2.5,0.2 -0.1,0.2 -0.6,0.3 -0.7,0.5 1.4,0.3 3.6,0.1 4.6,0.1 -0.4,0 -0.8,0 -1.1,-0.1 l 4,-0.7 c 0.6,0.2 0.1,0.3 -0.4,0.5 0.8,-0.1 1.4,-0.3 2.6,-0.3 -0.3,0.4 -0.2,0.8 -1.9,1 l 3.8,-0.4 c 0.3,0.2 2,0.5 1.5,0.6 2.1,0.2 5.2,-0.8 8,-0.5 0.1,-0.1 0.4,-0.1 1,-0.2 2.6,0.1 5,0.6 8.1,0 l 1.8,0.7 c 2.5,-0.2 -2.4,-0.9 1.7,-1.2 2.9,-0.2 1.1,0.6 2.1,0.8 1.4,-0.4 3.9,-1.1 6.6,-0.5 -1.8,-0.7 -2.5,-0.8 -3.3,-0.7 z m 30.2,-0.3 c -0.6,0.1 -1.8,0.4 -2.2,0.1 0.7,-0.6 1.2,-0.3 2.2,-0.1 z m 45.9,-1.2 c -0.4,0.2 -1.1,0.1 -1.9,-0.1 0.6,0 1.3,0 1.9,0.1 z m 128,-3.4 c 0,0.1 0,0.1 0,0 -1.3,-0.1 -0.9,0 0,0 z m 2.7,0.3 c 0.3,-0.1 0.3,-0.1 0.1,-0.2 -0.2,0.1 -0.8,0.1 -1.5,0.1 0.3,0.1 0.6,0.2 1.4,0.1 z m -291.3,0.1 0.5,0.1 c -1.1,0.2 -0.8,0.1 -0.5,-0.1 z"
                   inkscape:connector-curvature="0"
                   style="fill:#f2f2f2" />
                <path
                   id="path1690"
                   d="m 523.9,-294.4 c -0.2,-0.1 -0.2,-0.2 -0.3,-0.3 -0.1,0.1 -0.1,0.2 0.3,0.3 z"
                   inkscape:connector-curvature="0"
                   style="fill:#f2f2f2" />
                <path
                   id="path1692"
                   d="m 434.2,-293.4 c 0,0 -0.1,0 0,0 -0.1,0 -0.2,0.1 -0.2,0.1 l 0.2,-0.1 z"
                   inkscape:connector-curvature="0"
                   style="fill:#f2f2f2" />
                <path
                   id="path1694"
                   d="m 617.8,-294.2 c -0.6,-0.1 -0.9,-0.2 -1.1,-0.2 0,0.1 0.3,0.2 1.1,0.2 z"
                   inkscape:connector-curvature="0"
                   style="fill:#f2f2f2" />
                <path
                   id="path1696"
                   d="m 674.2,-299.1 -1.7,0.1 c 0.8,0 1.1,0.1 1.6,0.2 -0.1,-0.1 -0.4,-0.3 0.1,-0.3 z"
                   inkscape:connector-curvature="0"
                   style="fill:#f2f2f2" />
                <path
                   id="path1698"
                   d="m 689.3,-296.1 c 0.3,-0.1 0.5,0 0.8,-0.1 l -0.1,-0.2 c -1.1,0 -1.8,0.2 -0.7,0.3 z"
                   inkscape:connector-curvature="0"
                   style="fill:#f2f2f2" />
                <path
                   id="path1700"
                   d="m 675.8,-297.5 c 0.1,0.4 1.2,0.3 2.4,0.2 -0.1,0 -0.1,0 -0.2,0 0.4,-0.5 -0.9,-0.3 -2.2,-0.2 z"
                   inkscape:connector-curvature="0"
                   style="fill:#f2f2f2" />
                <path
                   id="path1702"
                   d="m 678.5,-297.3 c 0.4,0 0.8,0 1.1,0 0.2,-0.2 -0.4,0 -1.1,0 z"
                   inkscape:connector-curvature="0"
                   style="fill:#f2f2f2" />
                <path
                   id="path1704"
                   d="m 663.3,-298.5 c 0.6,0.1 0.4,-0.5 0.7,-0.4 0.6,-0.5 -3.9,0.7 -0.7,0.4 z"
                   inkscape:connector-curvature="0"
                   style="fill:#f2f2f2" />
                <polygon
                   id="polygon1706"
                   points="676.8,-296.1 676.4,-296.6 675.7,-296.2 "
                   style="fill:#f2f2f2" />
                <path
                   id="path1708"
                   d="m 667.2,-296.5 1.9,0.1 c 0,-0.1 0.2,-0.1 0.5,-0.2 -1.1,0.1 -2.5,0 -2.4,0.1 z"
                   inkscape:connector-curvature="0"
                   style="fill:#f2f2f2" />
                <path
                   id="path1710"
                   d="m 669.7,-296.5 c 0.6,0 1.2,0 1.6,-0.1 -0.4,0 -1.1,0 -1.6,0.1 z"
                   inkscape:connector-curvature="0"
                   style="fill:#f2f2f2" />
                <polygon
                   id="polygon1712"
                   points="674.1,-296 673.6,-296.1 672.2,-296.1 "
                   style="fill:#f2f2f2" />
                <path
                   id="path1714"
                   d="m 646.3,-296.6 -2.1,0.1 c -0.2,0.2 0.4,0.3 1.2,0.2 0.4,-0.1 1.2,-0.1 0.9,-0.3 z"
                   inkscape:connector-curvature="0"
                   style="fill:#f2f2f2" />
                <path
                   id="path1716"
                   d="m 652.7,-295.2 c -0.6,-0.1 -0.6,-0.2 -0.9,-0.4 l -0.1,0.6 1,-0.2 z"
                   inkscape:connector-curvature="0"
                   style="fill:#f2f2f2" />
                <path
                   id="path1718"
                   d="m 646.5,-295.1 c -0.2,0.2 -3.1,0.5 -0.4,0.5 0.2,-0.2 2.4,-0.3 0.4,-0.5 z"
                   inkscape:connector-curvature="0"
                   style="fill:#f2f2f2" />
                <polygon
                   id="polygon1720"
                   points="614.5,-295.9 615.1,-295.9 615,-296.9 "
                   style="fill:#f2f2f2" />
                <path
                   id="path1722"
                   d="m 586.4,-293.4 c 2.5,0.2 0.6,-0.6 2.9,-0.3 0.6,-0.2 -1.9,-0.2 -1.3,-0.5 -1.5,0.3 -2.3,0.1 -1.6,0.8 z"
                   inkscape:connector-curvature="0"
                   style="fill:#f2f2f2" />
                <path
                   id="path1724"
                   d="m 588,-294.2 c 0.2,0 0.5,-0.1 0.8,-0.2 -0.5,0.1 -0.7,0.2 -0.8,0.2 z"
                   inkscape:connector-curvature="0"
                   style="fill:#f2f2f2" />
                <polygon
                   id="polygon1726"
                   points="269.8,-298.6 268.2,-298.8 269.2,-298.4 "
                   style="fill:#f2f2f2" />
                <path
                   id="path1728"
                   d="m 266.7,-297.8 -0.4,-0.6 -1,0.6 c 0.4,-0.1 1.1,-0.2 1.4,0 z"
                   inkscape:connector-curvature="0"
                   style="fill:#f2f2f2" />
                <path
                   id="path1730"
                   d="m 487.7,-292.6 0.1,-0.2 c -0.3,-0.2 -0.6,-0.2 -1.4,-0.2 l 1.3,0.4 z"
                   inkscape:connector-curvature="0"
                   style="fill:#f2f2f2" />
                <polygon
                   id="polygon1732"
                   points="465.8,-293.1 466.1,-293.1 465.4,-293.7 "
                   style="fill:#f2f2f2" />
                <path
                   id="path1734"
                   d="m 447.4,-292.4 c 0.8,0 1.6,-0.1 2.4,-0.1 -1.7,0.2 -2.6,-0.6 -2.4,0.1 z"
                   inkscape:connector-curvature="0"
                   style="fill:#f2f2f2" />
              </g>
            </g>
          </g>
        </g>
      </g>
    </g>
  </g>
</svg>
